<svg width="79" height="78" viewBox="0 0 79 78" fill="none" xmlns="http://www.w3.org/2000/svg">
<path d="M23.3228 60.5576C23.0738 61.4433 22.3186 61.8853 21.4109 61.6296L20.3457 61.3349L21.1924 58.3511L22.2576 58.6525C23.1602 58.9014 23.5819 59.6703 23.3228 60.5576ZM21.5497 60.9962C22.073 61.1436 22.4693 60.9166 22.6234 60.368C22.7775 59.8193 22.5607 59.4095 22.0391 59.2621L21.7106 59.169L21.2111 60.8946L21.5497 60.9962Z" fill="white"/>
<path d="M23.8161 59.6953L24.5223 59.8376L24.0362 62.2541L23.3301 62.1119L23.8161 59.6953ZM23.8804 59.0332C23.893 58.9484 23.9307 58.8693 23.9886 58.8062C24.0466 58.7431 24.1222 58.6988 24.2056 58.679C24.289 58.6593 24.3764 58.665 24.4565 58.6954C24.5366 58.7259 24.6057 58.7797 24.655 58.8498C24.7042 58.92 24.7313 59.0033 24.7327 59.089C24.734 59.1747 24.7097 59.2588 24.6628 59.3305C24.6158 59.4022 24.5485 59.4582 24.4694 59.4913C24.3903 59.5243 24.3031 59.5329 24.2191 59.5158C24.1646 59.5077 24.1122 59.4886 24.0653 59.4596C24.0184 59.4306 23.9778 59.3924 23.9461 59.3473C23.9144 59.3021 23.8923 59.251 23.881 59.197C23.8697 59.143 23.8695 59.0873 23.8804 59.0332Z" fill="white"/>
<path d="M25.7666 60.0018C25.9115 60.0125 26.0509 60.062 26.1701 60.1451C26.2892 60.2283 26.3838 60.342 26.444 60.4743L26.488 60.1356L27.2026 60.2253L26.8944 62.6707L26.1798 62.5809L26.2238 62.2338C26.1308 62.3465 26.0095 62.4324 25.8723 62.4827C25.7351 62.533 25.5869 62.5458 25.4431 62.5199C24.8758 62.4488 24.4812 61.9001 24.5795 61.1296C24.6777 60.3591 25.1942 59.9307 25.7666 60.0018ZM25.8936 60.6792C25.626 60.647 25.3568 60.8265 25.3076 61.216C25.2585 61.6055 25.477 61.8561 25.7412 61.8934C26.0053 61.9306 26.278 61.7426 26.3271 61.3532C26.3762 60.9637 26.1645 60.7164 25.8936 60.6809V60.6792Z" fill="white"/>
<path d="M30.7715 61.3941C30.7715 61.0723 30.5903 60.8962 30.3159 60.8996C30.0416 60.903 29.8672 61.0791 29.8706 61.4076L29.8807 62.7454H29.1644L29.1542 61.4076C29.1542 61.0859 28.973 60.9098 28.6987 60.9131C28.4243 60.9165 28.2499 61.0927 28.2533 61.4212L28.2635 62.759H27.5421L27.5234 60.295H28.2432V60.6049C28.3201 60.4977 28.422 60.4109 28.54 60.3519C28.658 60.2929 28.7886 60.2635 28.9205 60.2662C29.0834 60.2582 29.2452 60.2963 29.3872 60.3764C29.5292 60.4564 29.6457 60.575 29.7232 60.7184C29.8042 60.5801 29.9192 60.4648 30.0574 60.3836C30.1955 60.3024 30.3521 60.2579 30.5124 60.2544C31.0932 60.2544 31.4709 60.6354 31.4759 61.2976L31.4878 62.737H30.7715V61.3941Z" fill="white"/>
<path d="M33.1874 62.5203C32.51 62.6134 31.9207 62.2036 31.814 61.428C31.7073 60.6524 32.1747 60.1003 32.8538 60.0072C33.5328 59.914 34.1306 60.3239 34.2356 61.0978C34.3406 61.8717 33.8715 62.4203 33.1874 62.5203ZM33.0993 61.8734C33.3533 61.8378 33.565 61.6092 33.5091 61.196C33.4533 60.7828 33.1925 60.6185 32.9418 60.6524C32.6912 60.6863 32.4846 60.9115 32.5405 61.3298C32.5964 61.748 32.8402 61.9022 33.0993 61.8666V61.8734Z" fill="white"/>
<path d="M36.1133 60.5573C36.0371 60.2305 35.822 60.0899 35.5562 60.1525C35.2903 60.2152 35.1599 60.4354 35.2361 60.7622L35.5392 62.0661L34.8381 62.2355L34.2793 59.8359L34.9804 59.6665L35.0549 59.9849C35.1076 59.8565 35.1911 59.7429 35.298 59.6543C35.4049 59.5657 35.5319 59.5048 35.6679 59.4769C36.1963 59.3549 36.6366 59.6462 36.7873 60.2965L37.1141 61.6987L36.4164 61.868L36.1133 60.5573Z" fill="white"/>
<path d="M37.7086 58.8929C37.8428 58.8445 37.9871 58.8307 38.128 58.8529C38.2689 58.8751 38.4019 58.9326 38.5147 59.0199L38.154 57.9344L38.8314 57.7075L39.8627 60.8082L39.1853 61.0351L39.0735 60.6965C39.0419 60.8373 38.9728 60.9671 38.8735 61.072C38.7743 61.1769 38.6485 61.2531 38.5096 61.2925C37.9609 61.4754 37.3699 61.1503 37.1244 60.4119C36.8788 59.6736 37.1616 59.0741 37.7086 58.8929ZM38.1167 59.4501C37.861 59.5347 37.6951 59.8142 37.8204 60.1867C37.9457 60.5593 38.2454 60.6948 38.4978 60.6067C38.7501 60.5186 38.9177 60.2392 38.7924 59.8667C38.6671 59.4941 38.3758 59.3637 38.1167 59.4501V59.4501Z" fill="white"/>
<path d="M15.2973 4.84668H62.778V56.0141L39.1359 72.4896L14.9941 56.2952L15.2973 4.84668Z" fill="#001344"/>
<path d="M39.1809 78L10.8496 59.1198L11.2018 0H66.9161V58.7947L39.1809 78ZM12.2078 58.3984L39.1606 76.3624L65.5682 58.0868V1.35645H12.5498L12.2078 58.3984Z" fill="#001344"/>
<path d="M14.2893 3.39697H63.8039V56.7574L39.1491 73.939L13.9727 57.0486L14.2893 3.39697Z" fill="#001344"/>
<path d="M37.4766 4.66016L39.6323 71.8255L62.78 55.8276V4.66016H37.4766Z" fill="#001344"/>
<path d="M38.8944 49.2637C36.0057 49.2677 33.1807 48.4149 30.7768 46.8131C28.3729 45.2113 26.4981 42.9325 25.3895 40.265C24.281 37.5974 23.9885 34.6611 24.5491 31.8273C25.1097 28.9935 26.4982 26.3897 28.5389 24.3452C30.5796 22.3007 33.1809 20.9074 36.0136 20.3415C38.8463 19.7756 41.7832 20.0627 44.4528 21.1663C47.1224 22.2699 49.4047 24.1404 51.0109 26.5414C52.6172 28.9423 53.4753 31.7657 53.4766 34.6544C53.4753 38.5239 51.9394 42.235 49.2057 44.9737C46.4721 47.7124 42.7639 49.2552 38.8944 49.2637V49.2637Z" fill="#465170"/>
<path d="M39.2543 45.2674C36.9458 45.263 34.7331 44.3439 33.1008 42.7116C31.4684 41.0792 30.5494 38.8665 30.5449 36.5581C30.5449 32.4853 33.2764 29.7538 35.6676 27.3474C37.2764 25.7539 38.7971 24.2179 39.2543 22.5059C39.7115 24.2332 41.2322 25.7539 42.841 27.3474C45.2559 29.7538 47.9654 32.4701 47.9654 36.5581C47.9672 37.7021 47.7432 38.8353 47.3062 39.8927C46.8693 40.9501 46.2279 41.9108 45.419 42.7199C44.6101 43.529 43.6495 44.1705 42.5922 44.6076C41.5349 45.0448 40.4018 45.269 39.2577 45.2674" fill="white"/>
<path d="M40.7304 29.1594C40.1699 28.5989 39.5806 28.0096 39.0624 27.4033C38.5763 27.9639 38.0598 28.4668 37.5281 28.9833C37.4001 29.1031 37.2995 29.2493 37.2334 29.4117C37.118 29.6601 37.082 29.938 37.1301 30.2077V30.2974C37.1744 30.4461 37.2444 30.586 37.3367 30.7106C37.3542 30.7331 37.3689 30.7576 37.3808 30.7834C37.8864 31.3591 38.4235 31.9063 38.9896 32.4227L41.6754 35.2118L42.473 36.0585C43.1327 36.7475 43.7306 37.4932 44.2595 38.2871V38.2871C44.323 38.3956 44.4215 38.4793 44.539 38.5242H44.5982C44.6612 38.5114 44.72 38.483 44.7691 38.4416C44.8183 38.4002 44.8562 38.347 44.8793 38.2871V38.2871C45.0546 37.728 45.1443 37.1457 45.1452 36.5598C45.1338 35.2013 44.6994 33.8801 43.9022 32.78C42.9749 31.4841 41.9221 30.2827 40.7592 29.1933L40.7304 29.1594Z" fill="#465170"/>
<path d="M41.4837 38.1671C40.8198 37.3559 40.1763 36.6108 39.1603 35.5405C38.3051 36.5143 37.5227 37.2678 36.8724 38.035C36.4827 38.4573 36.2203 38.9813 36.1155 39.5463C36.0108 40.1114 36.0679 40.6946 36.2803 41.2286C36.4927 41.7626 36.8517 42.2257 37.316 42.5645C37.7802 42.9032 38.3308 43.1038 38.9041 43.1431C39.4775 43.1824 40.0503 43.0589 40.5564 42.7867C41.0626 42.5145 41.4815 42.1047 41.7648 41.6047C42.0481 41.1047 42.1842 40.5347 42.1576 39.9607C42.1309 39.3866 41.9425 38.8317 41.6141 38.3601C41.5828 38.2883 41.5386 38.2228 41.4837 38.1671V38.1671Z" fill="#465170"/>
<path d="M37.5577 34.2107C37.5938 34.1701 37.6137 34.1177 37.6137 34.0634C37.6137 34.009 37.5938 33.9566 37.5577 33.916L35.5798 31.8941L35.153 31.4961C34.8115 31.8922 34.491 32.306 34.1928 32.7357C33.7204 33.4247 33.3662 34.1876 33.1446 34.9931V34.9931C32.9028 35.9211 32.9286 36.8986 33.2191 37.8126L33.2631 37.9024C33.3103 38.0008 33.3671 38.0944 33.4325 38.1818V38.1818C33.4325 38.1818 33.6679 38.551 33.8609 38.5662H33.9337C33.9682 38.5596 34.0002 38.5436 34.0262 38.52C34.0521 38.4964 34.0711 38.4661 34.0811 38.4324C34.2708 38.0435 34.5037 37.6771 34.7754 37.3402L35.4985 36.4697L37.5577 34.2107Z" fill="#465170"/>
<path d="M34.0318 8.45525C34.0318 9.61526 33.2765 10.318 32.125 10.318H30.9531V6.55859H32.125C33.2765 6.55859 34.0318 7.29016 34.0318 8.45525ZM32.125 9.82186C32.9717 9.82186 33.4272 9.31383 33.4272 8.45525C33.4272 7.59667 32.9717 7.06324 32.125 7.06324H31.5408V9.82186H32.125Z" fill="white"/>
<path d="M35.06 10.325H34.4707V7.33946H35.06V7.77298C35.1416 7.62114 35.2643 7.49535 35.414 7.40999C35.5638 7.32464 35.7345 7.28317 35.9067 7.29035V7.93047H35.7577C35.3242 7.93047 35.0549 8.12013 35.0549 8.75348L35.06 10.325Z" fill="white"/>
<path d="M38.8858 10.3249H38.2981V9.96758C38.1981 10.0959 38.0694 10.199 37.9224 10.2687C37.7754 10.3384 37.6141 10.3727 37.4514 10.3689C36.7893 10.3622 36.2812 9.93032 36.2812 9.09546V7.33936H36.8655V9.0074C36.8655 9.55438 37.15 9.83549 37.5784 9.83549C38.0069 9.83549 38.2964 9.55438 38.2964 9.0074V7.33936H38.8841L38.8858 10.3249Z" fill="white"/>
<path d="M41.0976 7.29007C41.8461 7.29007 42.4354 7.89801 42.4354 8.81417C42.4354 9.73032 41.8461 10.3687 41.0976 10.3687C40.9065 10.3684 40.7179 10.3248 40.5461 10.2412C40.3742 10.1576 40.2235 10.0362 40.1052 9.88612V11.7489H39.5176V7.34595H40.1052V7.78455C40.2201 7.62997 40.3699 7.50464 40.5423 7.41873C40.7147 7.33282 40.9049 7.28874 41.0976 7.29007V7.29007ZM40.9689 7.82181C40.5303 7.82181 40.1052 8.1859 40.1052 8.82433C40.1052 9.46276 40.5303 9.84039 40.9689 9.84039C41.4075 9.84039 41.8359 9.46614 41.8359 8.82433C41.8359 8.18251 41.4125 7.82181 40.9689 7.82181Z" fill="white"/>
<path d="M44.0235 7.29044C44.2145 7.28549 44.4039 7.3268 44.5755 7.41083C44.7471 7.49487 44.8959 7.61914 45.0091 7.77307V7.33955H45.5967V10.3251H45.0023V9.8814C44.8881 10.0375 44.738 10.1637 44.5647 10.2495C44.3914 10.3353 44.1999 10.3781 44.0066 10.3742C43.2665 10.3742 42.6738 9.74085 42.6738 8.81962C42.6738 7.89838 43.2733 7.29044 44.0235 7.29044ZM44.1471 7.82726C43.7085 7.82726 43.2852 8.16595 43.2852 8.81962C43.2852 9.47328 43.7085 9.83568 44.1471 9.83568C44.5857 9.83568 45.0091 9.47328 45.0091 8.81962C45.0091 8.16595 44.5908 7.82218 44.1471 7.82218V7.82726Z" fill="white"/>
<path d="M46.2344 6.31494H46.822V10.325H46.2344V6.31494Z" fill="white"/>
<path d="M20.7852 12.9464C21.1472 12.9337 21.5039 13.0365 21.8037 13.2398C22.1036 13.4432 22.331 13.7365 22.4532 14.0776H21.7454C21.6635 13.8939 21.528 13.7393 21.3566 13.6341C21.1852 13.5289 20.986 13.478 20.7852 13.4883C20.0722 13.4883 19.5557 14.0183 19.5557 14.8701C19.5557 15.7219 20.0638 16.257 20.7852 16.257C20.9862 16.2671 21.1856 16.216 21.357 16.1105C21.5284 16.005 21.6638 15.85 21.7454 15.666H22.4532C22.3309 16.0067 22.1033 16.2996 21.8034 16.5024C21.5035 16.7052 21.1469 16.8072 20.7852 16.7939C19.7691 16.7939 18.9512 16.0013 18.9512 14.8701C18.9512 13.7389 19.7725 12.9464 20.7852 12.9464Z" fill="white"/>
<path d="M24.2216 16.8089C23.4053 16.8089 22.8008 16.2026 22.8008 15.2644C22.8008 14.3263 23.3799 13.7251 24.2216 13.7251C25.0327 13.7251 25.6051 14.3161 25.6051 15.195C25.6059 15.2964 25.5991 15.3977 25.5848 15.4981H23.4121C23.4132 15.6034 23.4351 15.7074 23.4765 15.8042C23.5179 15.9009 23.578 15.9886 23.6534 16.0621C23.7288 16.1356 23.8179 16.1934 23.9157 16.2324C24.0135 16.2713 24.118 16.2905 24.2233 16.289C24.3657 16.2984 24.5074 16.2632 24.6289 16.1882C24.7503 16.1132 24.8453 16.0022 24.9006 15.8707H25.5374C25.4552 16.1521 25.2807 16.3976 25.0421 16.5678C24.8034 16.738 24.5144 16.8229 24.2216 16.8089V16.8089ZM23.4121 14.9986H24.987C24.9872 14.8962 24.9664 14.7948 24.926 14.7007C24.8856 14.6066 24.8264 14.5218 24.752 14.4514C24.6777 14.381 24.5897 14.3265 24.4935 14.2913C24.3974 14.2561 24.295 14.2409 24.1928 14.2467C23.7982 14.2467 23.4782 14.5278 23.4121 14.9986Z" fill="white"/>
<path d="M26.6286 16.76H26.041V13.7744H26.6286V14.208C26.7105 14.0564 26.8333 13.9308 26.983 13.8455C27.1326 13.7602 27.3032 13.7185 27.4754 13.7253V14.3654H27.3246C26.8911 14.3654 26.6219 14.5551 26.6219 15.1885L26.6286 16.76Z" fill="white"/>
<path d="M27.9715 14.2791H27.6328V13.7711H27.9715V13.0327H28.5642V13.7744H29.2568V14.2825H28.5642V15.9353C28.5642 16.1571 28.6472 16.2486 28.9029 16.2486H29.2636V16.7566H28.7996C28.2916 16.7566 27.9783 16.5348 27.9783 15.9285L27.9715 14.2791Z" fill="white"/>
<path d="M29.5784 12.9835C29.5823 12.9103 29.6077 12.8397 29.6512 12.7807C29.6948 12.7216 29.7547 12.6766 29.8236 12.6512C29.8924 12.6258 29.9672 12.6211 30.0387 12.6377C30.1102 12.6542 30.1753 12.6914 30.2259 12.7445C30.2765 12.7976 30.3105 12.8644 30.3236 12.9366C30.3368 13.0089 30.3285 13.0833 30.2998 13.1509C30.2711 13.2184 30.2232 13.2761 30.1621 13.3168C30.1011 13.3575 30.0294 13.3794 29.956 13.3798C29.905 13.3792 29.8547 13.3683 29.8079 13.348C29.7612 13.3276 29.719 13.2981 29.6838 13.2612C29.6486 13.2242 29.6212 13.1807 29.6031 13.133C29.5849 13.0853 29.5766 13.0345 29.5784 12.9835V12.9835ZM29.6563 13.7744H30.2456V16.7599H29.6563V13.7744Z" fill="white"/>
<path d="M30.9481 14.2791H30.6094V13.771H30.9481V13.5627C30.9481 12.8752 31.2868 12.5771 32.0268 12.5771V13.0852C31.6661 13.0852 31.5425 13.2156 31.5425 13.556V13.7676H32.0691V14.2757H31.5408V16.7566H30.9481V14.2791Z" fill="white"/>
<path d="M32.3674 12.9836C32.3717 12.9107 32.3972 12.8407 32.4408 12.7822C32.4844 12.7236 32.5441 12.6791 32.6127 12.6541C32.6812 12.629 32.7556 12.6246 32.8266 12.6413C32.8977 12.658 32.9623 12.6951 33.0125 12.748C33.0628 12.801 33.0964 12.8674 33.1094 12.9393C33.1223 13.0111 33.1139 13.0851 33.0853 13.1523C33.0567 13.2194 33.0091 13.2767 32.9484 13.3172C32.8876 13.3576 32.8164 13.3794 32.7434 13.3798C32.6925 13.379 32.6424 13.368 32.5958 13.3475C32.5493 13.327 32.5073 13.2975 32.4723 13.2606C32.4373 13.2237 32.41 13.1802 32.392 13.1326C32.374 13.0851 32.3656 13.0344 32.3674 12.9836V12.9836ZM32.4436 13.7744H33.033V16.76H32.4436V13.7744Z" fill="white"/>
<path d="M34.8895 16.8089C34.0733 16.8089 33.4688 16.2026 33.4688 15.2644C33.4688 14.3263 34.0479 13.7251 34.8895 13.7251C35.7007 13.7251 36.2748 14.3161 36.2748 15.195C36.2756 15.2964 36.2688 15.3977 36.2545 15.4981H34.0818C34.0829 15.6034 34.1048 15.7074 34.1462 15.8042C34.1876 15.9009 34.2477 15.9886 34.3231 16.0621C34.3984 16.1356 34.4876 16.1934 34.5854 16.2324C34.6832 16.2713 34.7877 16.2905 34.8929 16.289C35.0353 16.2981 35.177 16.2628 35.2983 16.1878C35.4197 16.1129 35.5147 16.0021 35.5703 15.8707H36.2054C36.1232 16.1521 35.9487 16.3976 35.71 16.5678C35.4714 16.738 35.1824 16.8229 34.8895 16.8089V16.8089ZM34.0818 14.9986H35.6584C35.6583 14.8961 35.6373 14.7947 35.5967 14.7006C35.5561 14.6065 35.4968 14.5216 35.4223 14.4513C35.3478 14.3809 35.2597 14.3265 35.1635 14.2913C35.0672 14.2561 34.9648 14.2409 34.8625 14.2467C34.4662 14.2467 34.1461 14.5278 34.0818 14.9986Z" fill="white"/>
<path d="M37.8597 13.7254C38.0476 13.7267 38.233 13.7692 38.4028 13.8499C38.5725 13.9307 38.7224 14.0478 38.8419 14.1928V12.75H39.4363V16.7601H38.8419V16.3113C38.7316 16.4697 38.5835 16.5981 38.4112 16.685C38.2388 16.7719 38.0476 16.8146 37.8546 16.8092C37.1061 16.8092 36.5117 16.1758 36.5117 15.2546C36.5117 14.3334 37.1061 13.7254 37.8597 13.7254ZM37.9765 14.2572C37.5363 14.2572 37.1129 14.5959 37.1129 15.2495C37.1129 15.9032 37.5363 16.2656 37.9765 16.2656C38.4168 16.2656 38.8385 15.9032 38.8385 15.2495C38.8385 14.5959 38.4236 14.2572 37.9765 14.2572Z" fill="white"/>
<path d="M42.5033 15.2329H41.853V16.757H41.2637V12.9941H42.5033C43.35 12.9941 43.7734 13.5022 43.7734 14.1169C43.7734 14.6537 43.4381 15.2329 42.5033 15.2329ZM42.5033 14.7248C42.9622 14.7248 43.1688 14.4928 43.1688 14.1135C43.1688 13.7342 42.9622 13.4954 42.5033 13.4954H41.853V14.7248H42.5033Z" fill="white"/>
<path d="M45.3409 13.7255C45.532 13.7206 45.7213 13.7619 45.893 13.8459C46.0646 13.9299 46.2133 14.0542 46.3265 14.2081V13.7746H46.9209V16.7601H46.3265V16.3165C46.2123 16.4725 46.0622 16.5988 45.8889 16.6846C45.7156 16.7704 45.5241 16.8131 45.3308 16.8093C44.5924 16.8093 43.998 16.1759 43.998 15.2547C43.998 14.3334 44.5924 13.7255 45.3409 13.7255ZM45.4646 14.2623C45.026 14.2623 44.6026 14.601 44.6026 15.2547C44.6026 15.9083 45.026 16.2707 45.4646 16.2707C45.9032 16.2707 46.3265 15.9083 46.3265 15.2547C46.3265 14.601 45.9083 14.2572 45.4646 14.2572V14.2623Z" fill="white"/>
<path d="M48.1365 16.76H47.5488V13.7744H48.1365V14.208C48.2183 14.0564 48.3411 13.9308 48.4908 13.8455C48.6404 13.7602 48.811 13.7185 48.9832 13.7253V14.3654H48.8325C48.3989 14.3654 48.1297 14.5551 48.1297 15.1885L48.1365 16.76Z" fill="white"/>
<path d="M49.4891 14.2791H49.1504V13.7711H49.4891V13.0327H50.0835V13.7744H50.7761V14.2825H50.0835V15.9353C50.0835 16.1571 50.1665 16.2486 50.4222 16.2486H50.7846V16.7566H50.3019C49.7939 16.7566 49.4806 16.5348 49.4806 15.9285L49.4891 14.2791Z" fill="white"/>
<path d="M53.1882 15.0923C53.1882 14.5453 52.9037 14.2625 52.4753 14.2625C52.0469 14.2625 51.7573 14.5453 51.7573 15.0923V16.7604H51.168V13.7748H51.7573V14.1135C51.8599 13.9888 51.9894 13.8889 52.136 13.8212C52.2826 13.7534 52.4425 13.7196 52.604 13.7223C53.2695 13.7223 53.7708 14.1626 53.7708 14.9958V16.757H53.1882V15.0923Z" fill="white"/>
<path d="M55.5985 16.8089C54.7823 16.8089 54.1777 16.2026 54.1777 15.2644C54.1777 14.3263 54.7569 13.7251 55.5985 13.7251C56.4097 13.7251 56.9838 14.3161 56.9838 15.195C56.9845 15.2964 56.9777 15.3977 56.9635 15.4981H54.7874C54.7885 15.6034 54.8104 15.7074 54.8518 15.8042C54.8932 15.9009 54.9533 15.9886 55.0287 16.0621C55.104 16.1356 55.1932 16.1934 55.291 16.2324C55.3888 16.2713 55.4933 16.2905 55.5985 16.289C55.7409 16.2981 55.8826 16.2628 56.0039 16.1878C56.1253 16.1129 56.2203 16.0021 56.2759 15.8707H56.911C56.8289 16.1515 56.655 16.3966 56.417 16.5667C56.179 16.7368 55.8908 16.8221 55.5985 16.8089V16.8089ZM54.7925 14.9986H56.3691C56.369 14.8961 56.348 14.7947 56.3074 14.7006C56.2668 14.6065 56.2075 14.5216 56.133 14.4513C56.0585 14.3809 55.9704 14.3265 55.8741 14.2913C55.7779 14.2561 55.6755 14.2409 55.5731 14.2467C55.1752 14.2467 54.8551 14.5278 54.7925 14.9986Z" fill="white"/>
<path d="M58.0073 16.7601H57.418V13.7745H58.0073V14.208C58.0889 14.0562 58.2116 13.9304 58.3613 13.8451C58.511 13.7597 58.6818 13.7182 58.854 13.7254V14.3655H58.705C58.2715 14.3655 58.0022 14.5552 58.0022 15.1885L58.0073 16.7601Z" fill="white"/>
<path d="M65.5527 47.5739L66.4367 54.5305C68.4587 53.7668 70.4891 53.0065 72.5602 52.3867C73.6305 52.0649 74.7109 51.7719 75.8031 51.5399C76.5516 51.3791 77.478 51.2622 78.1384 50.8964C77.7438 50.6238 73.9607 49.4536 74.1012 48.9913C74.6753 47.0946 76.0047 45.7483 77.649 44.7424C77.5017 44.8322 76.7684 44.6154 76.5974 44.6104C75.6511 44.5846 74.704 44.6124 73.7609 44.6933C70.8939 44.9457 67.8457 45.7636 65.5527 47.5739Z" fill="#465170"/>
<path d="M66.1535 54.9999L65.1934 47.4269L65.3424 47.3083C67.9486 45.2474 71.3355 44.57 73.73 44.3499C74.6873 44.2675 75.6485 44.2404 76.6089 44.2686C76.7392 44.2791 76.8683 44.3006 76.995 44.3329C77.1762 44.3776 77.3609 44.407 77.547 44.421C77.521 44.4254 77.4962 44.4352 77.4742 44.4498V44.4498L77.8281 45.0273C76.0771 46.0941 74.9781 47.3828 74.465 48.9594C74.8223 49.2422 76.2973 49.796 77.0322 50.072C77.7672 50.3481 78.1736 50.5039 78.3311 50.6122L78.7815 50.9221L78.3023 51.1863C77.735 51.503 77.0051 51.6435 76.3599 51.7689C76.1906 51.801 76.0314 51.8332 75.8756 51.8671C74.8714 52.0838 73.8181 52.3616 72.6581 52.7138C70.5887 53.3387 68.5938 54.0804 66.5617 54.8492L66.1535 54.9999ZM65.9131 47.7181L66.7175 54.0584C68.626 53.3387 70.5091 52.6478 72.4616 52.0584C73.647 51.7028 74.7105 51.4217 75.7317 51.1999C75.901 51.166 76.0602 51.1321 76.2397 51.0999C76.5784 51.0322 76.9323 50.9645 77.2558 50.873L76.8019 50.7037C74.321 49.7706 73.6233 49.4184 73.7859 48.8849C74.2533 47.3388 75.2135 46.0484 76.7071 44.9612L76.5936 44.9409C75.6614 44.9154 74.7286 44.9425 73.7994 45.0222C71.5387 45.2271 68.3652 45.8621 65.9165 47.7232L65.9131 47.7181Z" fill="white"/>
<path d="M13.2241 47.5738L12.3401 54.5305C10.308 53.7668 8.2877 53.0064 6.21661 52.3866C5.14636 52.0649 4.06594 51.7719 2.97198 51.5399C2.22348 51.379 1.29716 51.2622 0.636719 50.8964C1.03298 50.6237 4.81444 49.4536 4.67558 48.9913C4.10658 47.0895 2.77046 45.7432 1.12782 44.739C1.27345 44.8288 2.00671 44.612 2.17945 44.6069C3.12576 44.5812 4.07277 44.6089 5.01596 44.6899C7.88296 44.9456 10.9312 45.7636 13.2241 47.5738Z" fill="#465170"/>
<path d="M12.6212 54.9997L12.2199 54.8473C10.1878 54.0784 8.18611 53.3367 6.12349 52.7118C4.96179 52.3613 3.90847 52.0836 2.90595 51.8651C2.75015 51.8312 2.58758 51.7991 2.41993 51.7669C1.77642 51.6416 1.04655 51.501 0.477551 51.1843L0 50.9202L0.450456 50.6103C0.606253 50.5019 1.00421 50.3512 1.74933 50.0701C2.49444 49.789 3.95927 49.2403 4.31659 48.9575C3.80855 47.3809 2.70274 46.0939 0.955102 45.0253L1.30903 44.4478C1.28756 44.4334 1.26334 44.4236 1.23791 44.419C1.42413 44.4058 1.60885 44.3763 1.78997 44.331C1.91662 44.2987 2.04579 44.2771 2.17607 44.2666C3.13646 44.2384 4.09767 44.2656 5.05493 44.3479C7.43591 44.5698 10.8313 45.2471 13.4324 47.3081L13.5831 47.4266L12.6212 54.9997ZM1.52749 50.8778C1.85263 50.9693 2.20486 51.037 2.54355 51.1048C2.7129 51.1369 2.88224 51.1708 3.05159 51.2047C4.06765 51.4265 5.14129 51.7127 6.32162 52.0632C8.27247 52.6526 10.1556 53.3435 12.0641 54.0632L12.8702 47.7229C10.4181 45.8602 7.24455 45.2268 4.99227 45.0253C4.06202 44.9456 3.12801 44.9184 2.1947 44.944L2.08294 44.9643C3.57825 46.0498 4.53674 47.3351 5.00582 48.888C5.17516 49.4215 4.47069 49.7737 1.9881 50.7068L1.52749 50.8778Z" fill="white"/>
<path d="M10.1302 48.5817C10.1302 48.5817 11.8101 47.4335 13.2241 47.7875L12.5162 57.1522L9.33594 56.358L10.1302 48.5817Z" fill="#465170"/>
<path d="M12.8228 57.5791L8.9668 56.6155L9.81352 48.3922L9.94222 48.3024C10.0167 48.2516 11.7644 47.073 13.3088 47.4557L13.5865 47.5251L12.8228 57.5791ZM9.69328 56.1007L12.2013 56.7273L12.8533 48.0687C11.8795 47.9756 10.8076 48.5598 10.4418 48.78L9.69328 56.1007Z" fill="white"/>
<path d="M68.645 48.5817C68.645 48.5817 66.9668 47.4335 65.5527 47.7875L66.2555 57.1522L69.4358 56.358L68.645 48.5817Z" fill="#465170"/>
<path d="M65.952 57.5784L65.1934 47.5278L65.4711 47.4584C67.0138 47.0723 68.7631 48.2509 68.836 48.3051L68.9664 48.3949L69.8131 56.6182L65.952 57.5784ZM65.9165 48.068L66.5701 56.7266L69.0764 56.1L68.3279 48.7793C67.9604 48.5591 66.8868 47.9749 65.9165 48.068Z" fill="white"/>
<path d="M10.1227 49.127C10.1227 49.127 38.6877 58.5374 68.7158 49.127L69.7319 58.9862C69.7319 58.9862 38.9248 68.7319 9.12695 58.9862L10.1227 49.127Z" fill="#465170"/>
<path d="M38.1685 63.6448C29.3711 63.6448 19.1359 62.6186 9.0091 59.3079L8.75 59.2233L9.82872 48.6748L10.2284 48.8069C10.2995 48.8289 17.4746 51.1642 28.2127 52.3208C38.1177 53.3894 53.1639 53.6451 68.6081 48.8052L69.0044 48.6799L70.0831 59.225L69.8206 59.3079C69.7428 59.3333 61.9563 61.7685 50.6272 62.9776C46.4889 63.4196 42.3302 63.6423 38.1685 63.6448V63.6448ZM9.47987 58.7474C24.7209 63.6753 40.2091 63.4061 50.5374 62.3036C60.6439 61.2283 67.9087 59.1708 69.3533 58.7474L68.4151 49.5791C52.9912 54.3241 38.0093 54.0532 28.123 52.9931C18.7566 51.977 12.0776 50.0787 10.418 49.574L9.47987 58.7474Z" fill="white"/>
<path d="M33.3346 59.8803L31.8105 59.7973L32.029 55.8008L33.482 55.8804C34.2881 55.9244 34.6894 56.4138 34.6589 56.9777C34.6534 57.18 34.5824 57.375 34.4566 57.5335C34.3308 57.692 34.157 57.8054 33.9612 57.8566C34.1719 57.9252 34.3533 58.0628 34.4762 58.2471C34.5991 58.4315 34.6563 58.6518 34.6386 58.8727C34.6098 59.484 34.1136 59.9243 33.3346 59.8803ZM33.3567 58.0937L32.5336 58.0497L32.4659 59.296L33.3126 59.3435C33.736 59.3655 34.0052 59.1555 34.0256 58.7711C34.0459 58.3867 33.7732 58.1174 33.3567 58.0937ZM33.399 56.4121L32.6268 56.3698L32.5641 57.5145L33.3363 57.5569C33.7428 57.5789 34.0002 57.3875 34.0137 57.0234C34.0273 56.6594 33.8054 56.4341 33.4041 56.4121H33.399Z" fill="white"/>
<path d="M35.7733 59.9801L35.1484 59.9615L35.2399 56.7913L35.8665 56.8083L35.858 57.2706C35.9498 57.1111 36.0849 56.9808 36.2476 56.8948C36.4103 56.8088 36.594 56.7706 36.7775 56.7846L36.7572 57.4619H36.598C36.1374 57.4484 35.8461 57.6431 35.8275 58.3087L35.7733 59.9801Z" fill="white"/>
<path d="M38.4679 60.0781C37.6059 60.0781 36.9539 59.4261 36.959 58.4304C36.9641 57.4346 37.6449 56.7979 38.5068 56.8013C39.3688 56.8047 40.0462 57.4465 40.0428 58.4422C40.0394 59.438 39.3298 60.0815 38.4679 60.0781ZM38.4679 59.5074C38.9336 59.5074 39.3959 59.1687 39.3993 58.4405C39.4027 57.7124 38.959 57.3737 38.4916 57.372C38.0242 57.3703 37.5957 57.7107 37.5924 58.4338C37.589 59.1569 37.9971 59.5057 38.4696 59.5074H38.4679Z" fill="white"/>
<path d="M42.6435 58.1901C42.6266 57.6093 42.3167 57.318 41.8612 57.3316C41.4056 57.3451 41.1076 57.6516 41.1228 58.2325L41.1736 60.0055L40.547 60.0225L40.459 56.8506L41.0856 56.8337L41.0957 57.1961C41.201 57.0609 41.3356 56.9512 41.4892 56.8753C41.6429 56.7993 41.8117 56.7591 41.9831 56.7575C42.6909 56.7372 43.2362 57.1893 43.2599 58.075L43.3124 59.9462L42.6926 59.9632L42.6435 58.1901Z" fill="white"/>
<path d="M45.7798 57.1721L44.5233 59.3448L45.8933 59.272L45.9221 59.8054L43.829 59.9189L43.8002 59.3854L45.0618 57.2111L43.685 57.2856L43.6562 56.7521L45.751 56.6387L45.7798 57.1721Z" fill="white"/>
<path d="M47.7781 59.7212C46.9128 59.7906 46.2218 59.1979 46.1422 58.1971C46.0627 57.1963 46.6249 56.5189 47.5173 56.4478C48.3759 56.38 49.0414 56.9558 49.1075 57.8872C49.116 57.9943 49.116 58.1019 49.1075 58.209L46.8044 58.3918C46.8139 58.5035 46.8456 58.6122 46.8974 58.7115C46.9493 58.8109 47.0204 58.899 47.1065 58.9706C47.1927 59.0423 47.2923 59.0962 47.3994 59.1291C47.5065 59.162 47.6191 59.1733 47.7307 59.1624C47.8812 59.1596 48.0272 59.1102 48.1485 59.021C48.2698 58.9319 48.3605 58.8073 48.4081 58.6645L49.0854 58.6103C49.024 58.9154 48.8616 59.191 48.6245 59.3925C48.3873 59.594 48.0891 59.7098 47.7781 59.7212ZM46.7705 57.872L48.4402 57.7399C48.4316 57.6313 48.4008 57.5257 48.35 57.4294C48.2991 57.3332 48.2291 57.2483 48.1443 57.18C48.0595 57.1117 47.9617 57.0614 47.8568 57.0321C47.7519 57.0029 47.6422 56.9954 47.5343 57.01C47.1211 57.0422 46.7976 57.3673 46.7705 57.872Z" fill="white"/>
</svg>
