<svg width="79" height="78" viewBox="0 0 79 78" fill="none" xmlns="http://www.w3.org/2000/svg">
<circle cx="39.125" cy="39" r="39" fill="#091543"/>
<circle cx="39.1239" cy="38.9994" r="25.3036" fill="white"/>
<circle cx="39.1244" cy="38.9994" r="23.2143" fill="#465170"/>
<path d="M44.6916 28.4139C42.1518 25.8536 39.7287 23.4129 39.0074 20.6602C38.2862 23.4129 35.8626 25.8536 33.3233 28.4139C29.5141 32.2531 25.1954 36.6043 25.1954 43.1304C25.1894 44.9636 25.5423 46.78 26.2338 48.4754C26.9253 50.1708 27.9417 51.7118 29.2249 53.0103C30.5081 54.3087 32.0328 55.3389 33.7116 56.0418C35.3903 56.7447 37.1901 57.1066 39.0078 57.1066C40.8255 57.1066 42.6253 56.7447 44.3041 56.0418C45.9828 55.3389 47.5075 54.3087 48.7907 53.0103C50.0739 51.7118 51.0904 50.1708 51.7818 48.4754C52.4733 46.78 52.8262 44.9636 52.8202 43.1304C52.8202 36.6047 48.5019 32.2531 44.6916 28.4139ZM31.0662 46.3764C30.2192 46.3475 27.0935 40.9139 32.8921 35.1285L36.7293 39.3556C36.7623 39.3885 36.788 39.428 36.8047 39.4715C36.8214 39.5151 36.8288 39.5617 36.8264 39.6084C36.824 39.655 36.8118 39.7006 36.7907 39.7422C36.7695 39.7837 36.7399 39.8203 36.7037 39.8495C35.788 40.7965 31.8853 44.7435 31.4001 46.1083C31.3002 46.39 31.154 46.3794 31.0662 46.3764ZM39.0079 53.5376C38.384 53.5377 37.7663 53.4138 37.1899 53.173C36.6136 52.9322 36.0899 52.5793 35.6488 52.1344C35.2076 51.6896 34.8577 51.1614 34.619 50.5801C34.3802 49.9988 34.2573 49.3758 34.2573 48.7466C34.2749 47.5849 34.6936 46.4657 35.4414 45.582C36.2981 44.5256 39.0073 41.5545 39.0073 41.5545C39.0073 41.5545 41.6749 44.5692 42.5666 45.5719C43.3433 46.4428 43.7685 47.5754 43.7583 48.7466C43.7582 50.0173 43.2577 51.2359 42.3669 52.1344C41.476 53.0328 40.2678 53.5376 39.0079 53.5376ZM48.1002 45.7682C47.9979 45.9941 47.7655 46.3711 47.4521 46.3826C46.8933 46.4032 46.8336 46.1143 46.4206 45.4979C45.5139 44.1446 37.6009 35.8038 36.1208 34.1908C34.819 32.7721 35.9374 31.7717 36.4564 31.2476C37.1073 30.5899 39.0073 28.6747 39.0073 28.6747C39.0073 28.6747 44.673 34.0962 47.033 37.8006C49.393 41.5049 48.5798 44.7104 48.1002 45.7682Z" fill="white"/>
<path d="M7.32227 23.3285L8.57854 21.3822C9.51057 19.9384 11.0374 19.5274 12.3729 20.3897C13.7084 21.252 13.9623 22.8124 13.0306 24.2562L11.7743 26.2024L7.32227 23.3285ZM12.3064 23.8427C12.947 22.8504 12.7574 21.818 11.8351 21.2227C10.9128 20.6274 9.89397 20.8797 9.25362 21.8717L8.55575 22.953L11.6085 24.9236L12.3064 23.8427Z" fill="white"/>
<path d="M13.6334 16.834L14.3112 17.4271C14.245 17.4798 14.1945 17.5262 14.1495 17.5774C13.6757 18.1187 13.6958 18.7396 14.3166 19.283L15.7921 20.5743L15.1689 21.2863L12.127 18.624L12.7204 17.9462L13.1648 18.335C13.0251 17.8509 13.1898 17.3411 13.6334 16.834Z" fill="white"/>
<path d="M17.4224 13.3984L20.0986 16.4284L19.4235 17.0248L19.0827 16.639C19.1014 17.1173 18.8741 17.5808 18.4828 17.9265C17.7054 18.6129 16.8019 18.6536 15.9952 17.74L14.4668 16.0095L15.1761 15.383L16.6193 17.0169C17.1055 17.5672 17.5969 17.5979 18.0451 17.202C18.5387 16.766 18.603 16.1639 18.0666 15.5569L16.7134 14.0249L17.4224 13.3984Z" fill="white"/>
<path d="M23.4755 11.8016C24.147 12.8639 23.848 14.0201 22.8501 14.6512C22.4148 14.9263 21.9381 15.0218 21.4646 14.8824L22.5125 16.5397L21.7126 17.0454L18.7676 12.3869L19.5289 11.9056L19.8122 12.3535C19.8746 11.8573 20.1701 11.4465 20.6373 11.1513C21.6353 10.5201 22.808 10.7459 23.4755 11.8016ZM22.6628 12.3153C22.2501 11.6627 21.5523 11.5219 20.9762 11.8858C20.4005 12.2499 20.2219 12.945 20.6344 13.5976C21.0471 14.2502 21.7514 14.3869 22.3272 14.0231C22.9035 13.6589 23.0755 12.9681 22.6628 12.3153Z" fill="white"/>
<path d="M27.3134 9.70922L28.2655 11.8791L27.4475 12.238L27.2496 11.7874C27.1815 12.1976 26.8587 12.5541 26.3041 12.7975C25.4583 13.1687 24.7208 12.9384 24.4378 12.2937C24.167 11.6767 24.37 11.0089 25.493 10.5162L26.4498 10.0964L26.4253 10.0411C26.2034 9.53502 25.7674 9.37086 25.1506 9.64165C24.7347 9.82426 24.3656 10.1515 24.1887 10.5018L23.5723 10.0202C23.8336 9.5418 24.342 9.1367 24.9382 8.87514C26.0059 8.40627 26.8448 8.64152 27.3134 9.70922ZM26.8909 11.1014L26.7024 10.6716L25.8081 11.064C25.2187 11.3226 25.1569 11.6142 25.2754 11.8848C25.4122 12.1968 25.7638 12.2823 26.2075 12.0875C26.6305 11.9019 26.9127 11.5467 26.8909 11.1014Z" fill="white"/>
<path d="M27.5938 6.20743L28.4957 5.9209L30.1972 11.274L29.2953 11.5606L27.5938 6.20743Z" fill="white"/>
<path d="M36.5385 8.81856L33.9079 9.13629L33.5365 10.4164L32.5293 10.538L34.2615 4.99113L35.2236 4.875L38.2341 9.84909L37.212 9.97254L36.5385 8.81856ZM36.1228 8.09112L34.853 5.91122L34.1462 8.32989L36.1228 8.09112Z" fill="white"/>
<path d="M38.1523 9.51409L38.5412 8.80835C38.8882 9.05553 39.4271 9.24167 39.9339 9.25985C40.5317 9.28128 40.7873 9.12391 40.7973 8.84389C40.825 8.07222 38.3024 8.70877 38.3602 7.09732C38.3876 6.33324 39.0939 5.85868 40.1833 5.89775C40.7205 5.91701 41.3286 6.0676 41.6838 6.30014L41.2949 7.00588C40.9172 6.76493 40.5341 6.67566 40.1483 6.66183C39.5733 6.6412 39.2941 6.82056 39.2846 7.08538C39.2553 7.90236 41.7779 7.26581 41.7212 8.84688C41.6941 9.60335 40.9805 10.07 39.8455 10.0293C39.1726 10.0052 38.5062 9.78433 38.1523 9.51409Z" fill="white"/>
<path d="M41.9492 9.64076L42.4129 8.9817C42.7309 9.26551 43.2462 9.50917 43.7482 9.58243C44.3399 9.66898 44.6113 9.54037 44.6517 9.26334C44.7635 8.49926 42.1864 8.85661 42.4197 7.26117C42.5304 6.50469 43.2845 6.1099 44.363 6.26782C44.8948 6.34569 45.4831 6.56167 45.8108 6.83165L45.3471 7.49072C44.9979 7.21016 44.627 7.07938 44.245 7.02348C43.6757 6.94018 43.3786 7.08806 43.3403 7.35017C43.222 8.15928 45.7992 7.80167 45.5702 9.36726C45.4605 10.1164 44.7003 10.5022 43.5767 10.3381C42.9097 10.2404 42.2716 9.94791 41.9492 9.64076Z" fill="white"/>
<path d="M46.2698 8.64978C46.6068 7.4863 47.7174 6.91732 48.9099 7.26272C50.1171 7.6122 50.7444 8.68451 50.4074 9.84799C50.0704 11.0115 48.965 11.5897 47.7581 11.2402C46.5653 10.8948 45.9328 9.81326 46.2698 8.64978ZM49.4911 9.58263C49.706 8.8408 49.3484 8.22514 48.6866 8.03358C48.0321 7.84419 47.4007 8.17359 47.1861 8.91515C46.9712 9.6567 47.3288 10.2726 47.9833 10.4623C48.6448 10.6539 49.2762 10.3245 49.4911 9.58263Z" fill="white"/>
<path d="M51.0468 10.1041C51.5482 9.00138 52.7291 8.59872 53.8939 9.12809C54.6105 9.45396 55.0479 10.0105 55.0767 10.6969L54.2396 10.7821C54.1788 10.3304 53.9202 10.0216 53.555 9.85554C52.9209 9.56738 52.238 9.78906 51.9154 10.4989C51.5895 11.2155 51.8747 11.8691 52.5085 12.1573C52.8737 12.3233 53.2766 12.3152 53.657 12.0639L54.1433 12.7507C53.6101 13.1734 52.897 13.2236 52.1804 12.8977C51.0153 12.3684 50.5454 11.2068 51.0468 10.1041Z" fill="white"/>
<path d="M56.3923 10.4603L57.2092 10.9379L55.1685 14.4275L54.3516 13.9499L56.3923 10.4603ZM56.9043 9.3302C57.0649 9.05561 57.413 8.97014 57.7137 9.1457C58.0143 9.32125 58.1179 9.6539 57.9614 9.92198C57.7932 10.2096 57.4478 10.3056 57.1406 10.126C56.8397 9.9502 56.7436 9.60479 56.9043 9.3302Z" fill="white"/>
<path d="M60.256 15.0756L58.8521 16.9845L58.1325 16.4551L58.4239 16.0587C58.0346 16.2046 57.5643 16.1032 57.0765 15.7442C56.3325 15.1969 56.1635 14.4431 56.5805 13.8758C56.9796 13.3331 57.6596 13.1752 58.6475 13.9018L59.4892 14.5207L59.525 14.4719C59.8525 14.0266 59.7771 13.5673 59.2341 13.1679C58.8684 12.8987 58.4003 12.7427 58.0085 12.7644L58.1179 11.9897C58.6627 11.977 59.2678 12.2152 59.792 12.6011C60.7314 13.2921 60.9468 14.1365 60.256 15.0756ZM58.8388 15.4053L59.1169 15.0273L58.3303 14.4488C57.8121 14.0676 57.5283 14.1596 57.3532 14.3973C57.1514 14.6716 57.2531 15.0189 57.6433 15.306C58.0153 15.5795 58.4641 15.6465 58.8388 15.4053Z" fill="white"/>
<path d="M61.561 19.2033C61.271 19.1802 60.9606 19.0128 60.7126 18.7797C60.0673 18.173 60.0193 17.4836 60.6312 16.8329L61.9637 15.4154L61.4783 14.9591L61.9968 14.4074L62.4822 14.8638L63.1147 14.1909L63.8042 14.8391L63.1717 15.512L63.9604 16.2536L63.4419 16.8052L62.6532 16.0637L61.3361 17.4646C61.0664 17.7514 61.0648 18.0406 61.3293 18.2894C61.4729 18.4243 61.6468 18.5152 61.8294 18.5312L61.561 19.2033Z" fill="white"/>
<path d="M64.8516 17.1675L65.4849 17.8708L62.4809 20.576L61.8477 19.8727L64.8516 17.1675ZM65.6824 16.246C65.9187 16.0333 66.2766 16.0575 66.5094 16.316C66.7425 16.5749 66.7403 16.923 66.5097 17.1309C66.2623 17.3536 65.9038 17.3403 65.6656 17.0761C65.4328 16.8172 65.4461 16.4588 65.6824 16.246Z" fill="white"/>
<path d="M64.6783 19.9351C65.661 19.2272 66.8861 19.4646 67.6116 20.4721C68.3461 21.4918 68.1785 22.7228 67.1954 23.4307C66.2126 24.1386 64.9857 23.9118 64.2514 22.8921C63.5259 21.8844 63.6952 20.643 64.6783 19.9351ZM66.6381 22.6563C67.2646 22.2051 67.3631 21.4999 66.9604 20.9407C66.5624 20.3877 65.8621 20.2578 65.2356 20.709C64.6091 21.1602 64.5106 21.8654 64.9086 22.4184C65.3113 22.9776 66.0116 23.1078 66.6381 22.6563Z" fill="white"/>
<path d="M69.7787 27.7425L67.7114 28.788L67.2843 27.9436L69.2433 26.9527C69.885 26.6282 70.0354 26.1533 69.7618 25.6131C69.4577 25.0118 68.8879 24.791 68.165 25.1565L66.3411 26.079L65.9141 25.2346L69.5214 23.4102L69.9279 24.2141L69.4618 24.4499C69.9328 24.5595 70.3306 24.9098 70.597 25.4367C71.0349 26.3012 70.8662 27.1925 69.7787 27.7425Z" fill="white"/>
<path d="M7.88074 51.4723C9.10111 50.808 10.4914 51.2621 11.1747 52.5175C11.5372 53.1831 11.6092 53.8857 11.3719 54.5066L10.6437 54.2672C10.8028 53.7947 10.7601 53.3409 10.5281 52.9147C10.0671 52.0681 9.1378 51.7793 8.297 52.2369C7.4562 52.6946 7.19442 53.6319 7.65537 54.4785C7.88736 54.9047 8.24541 55.1869 8.7345 55.3066L8.53451 56.0514C7.88405 55.9135 7.33317 55.4716 6.96767 54.8002C6.28741 53.5505 6.66037 52.1365 7.88074 51.4723Z" fill="white"/>
<path d="M9.74222 55.9362C10.6007 55.308 11.6779 55.508 12.322 56.388C12.9738 57.2784 12.8348 58.3606 11.9764 58.989C11.1179 59.6171 10.039 59.4265 9.38748 58.5358C8.74364 57.6558 8.88405 56.5645 9.74222 55.9362ZM11.4818 58.3129C12.029 57.9124 12.1107 57.2922 11.7535 56.8043C11.4001 56.3215 10.7844 56.2117 10.2371 56.6123C9.68981 57.0128 9.60816 57.6329 9.96153 58.1157C10.3188 58.6039 10.9345 58.7134 11.4818 58.3129Z" fill="white"/>
<path d="M17.0046 63.7416L15.5884 65.2019L14.9917 64.6235L16.3337 63.2395C16.7734 62.786 16.7762 62.3629 16.4137 62.0111C16.0223 61.6316 15.5004 61.6255 15.0099 62.1314L13.7556 63.4246L13.1589 62.8462L14.501 61.4622C14.9407 61.009 14.9434 60.5855 14.581 60.2338C14.1848 59.8498 13.6676 59.8482 13.1771 60.3541L11.9228 61.6473L11.3262 61.0688L13.7975 58.5205L14.3655 59.0714L14.0508 59.3958C14.4637 59.3519 14.88 59.5147 15.2284 59.8526C15.6005 60.2134 15.7765 60.6528 15.6755 61.1105C16.1354 61.047 16.6363 61.2181 17.0418 61.6114C17.6581 62.2084 17.7497 62.9733 17.0046 63.7416Z" fill="white"/>
<path d="M23.0192 67.6764L21.9351 69.3977L21.232 68.955L22.2592 67.3236C22.5958 66.7892 22.5111 66.3744 22.0838 66.1051C21.6226 65.8147 21.1106 65.9164 20.7351 66.5128L19.7752 68.0375L19.072 67.5947L20.0993 65.9633C20.4358 65.429 20.3512 65.0141 19.9239 64.7449C19.4568 64.4508 18.9507 64.5562 18.5752 65.1526L17.6153 66.6772L16.9121 66.2345L18.8039 63.2305L19.4734 63.652L19.2326 64.0346C19.6276 63.9063 20.0684 63.9797 20.4792 64.2382C20.918 64.5146 21.1809 64.9079 21.1765 65.3766C21.6132 65.2196 22.1387 65.2834 22.617 65.5843C23.342 66.0414 23.5897 66.7708 23.0192 67.6764Z" fill="white"/>
<path d="M27.9028 68.0465L26.5503 71.3288L25.8188 71.0273L25.9909 70.6094C25.621 70.8094 25.1678 70.8097 24.7438 70.6348C23.9016 70.2878 23.5201 69.5912 23.9278 68.6017L24.7002 66.7271L25.4685 67.0437L24.7391 68.8139C24.4933 69.4103 24.6597 69.8094 25.1452 70.0094C25.68 70.2298 26.1793 70.0472 26.4502 69.3896L27.134 67.7301L27.9028 68.0465Z" fill="white"/>
<path d="M31.854 70.7163L31.3406 72.6848L30.5365 72.4752L31.0231 70.6096C31.1826 69.9986 30.9575 69.6237 30.4427 69.4894C29.8703 69.3401 29.3937 69.5867 29.2141 70.275L28.7611 72.0118L27.957 71.8021L28.853 68.3672L29.6185 68.5669L29.5026 69.0108C29.8486 68.7644 30.3103 68.7062 30.8121 68.837C31.6355 69.0519 32.1241 69.6808 31.854 70.7163Z" fill="white"/>
<path d="M33.2207 69.3893L34.0414 69.52L33.4828 73.0258L32.6621 72.8951L33.2207 69.3893ZM33.2795 68.3013C33.3233 68.0254 33.5812 67.8445 33.883 67.8925C34.1851 67.9405 34.3757 68.1796 34.3329 68.4489C34.2869 68.7377 34.0348 68.9264 33.7261 68.8773C33.4243 68.8293 33.2356 68.5771 33.2795 68.3013Z" fill="white"/>
<path d="M36.9087 73.191C36.6963 73.3327 36.3912 73.3863 36.0933 73.3603C35.3184 73.293 34.9104 72.8439 34.978 72.0624L35.1258 70.3604L34.543 70.31L34.6003 69.6476L35.1832 69.6981L35.2533 68.8901L36.0811 68.9621L36.0111 69.7701L36.9581 69.8523L36.9007 70.5146L35.9537 70.4324L35.8078 72.1146C35.778 72.4588 35.9341 72.6594 36.2519 72.687C36.424 72.7019 36.5937 72.6699 36.728 72.5816L36.9087 73.191Z" fill="white"/>
<path d="M41.0732 69.8345L39.4562 73.6895C39.1398 74.4978 38.6907 74.7491 38.099 74.756C37.7467 74.7601 37.3729 74.6448 37.1445 74.4412L37.4698 73.8258C37.6311 73.9769 37.8582 74.0672 38.0841 74.0647C38.3765 74.0614 38.5478 73.9196 38.7031 73.5654L38.7613 73.425L37.1707 69.88L38.035 69.8698L39.1825 72.4824L40.2752 69.8433L41.0732 69.8345Z" fill="white"/>
<path d="M43.5593 72.6395L43.7292 71.9245C44.1505 72.1496 44.7711 72.2495 45.333 72.1438C46.0453 72.01 46.2977 71.6986 46.234 71.3588C46.0486 70.3723 43.4523 71.5301 43.1328 69.8314C42.9941 69.0932 43.4641 68.3553 44.7184 68.1194C45.2671 68.0163 45.8693 68.0518 46.317 68.2383L46.1733 68.9486C45.7162 68.7842 45.2434 68.7514 44.8448 68.8264C44.1392 68.9591 43.9033 69.2877 43.9684 69.6339C44.1513 70.6073 46.7435 69.4637 47.0593 71.1428C47.197 71.8746 46.7203 72.6136 45.466 72.8495C44.7535 72.983 43.9996 72.895 43.5593 72.6395Z" fill="white"/>
<path d="M50.5852 67.7046L51.6815 71.081L50.929 71.3254L50.7894 70.8954C50.6371 71.2874 50.292 71.5811 49.8559 71.7227C48.9897 72.004 48.2477 71.7207 47.9172 70.7026L47.291 68.7741L48.0813 68.5175L48.6725 70.3384C48.8716 70.9516 49.257 71.1483 49.7566 70.9861C50.3066 70.8077 50.569 70.3451 50.3491 69.6684L49.7949 67.9611L50.5852 67.7046Z" fill="white"/>
<path d="M55.686 67.2918C56.166 68.2854 55.7897 69.2647 54.856 69.7157C54.4488 69.9124 54.0232 69.9483 53.624 69.7792L54.373 71.3298L53.6246 71.6911L51.5195 67.3329L52.2321 66.9889L52.4345 67.408C52.5385 66.9812 52.8373 66.6524 53.2745 66.4411C54.2083 65.9901 55.2091 66.304 55.686 67.2918ZM54.9258 67.659C54.6309 67.0485 54.0359 66.856 53.4971 67.1161C52.9584 67.3762 52.7333 67.9649 53.0282 68.5756C53.3231 69.1864 53.9241 69.3759 54.4629 69.1158C55.0016 68.8554 55.2206 68.2695 54.9258 67.659Z" fill="white"/>
<path d="M59.6352 64.7169C60.2468 65.6355 60.0081 66.657 59.1447 67.2316C58.7685 67.482 58.3516 67.5758 57.9332 67.463L58.8873 68.8963L58.1955 69.3567L55.5137 65.3279L56.1721 64.8896L56.4301 65.2769C56.4747 64.8399 56.7255 64.4733 57.1296 64.2044C57.9933 63.6297 59.0275 63.8038 59.6352 64.7169ZM58.9326 65.1847C58.5569 64.6203 57.9412 64.5111 57.443 64.8427C56.9448 65.1742 56.8025 65.788 57.1782 66.3527C57.5539 66.9171 58.1751 67.0227 58.6733 66.6912C59.1712 66.3593 59.3083 65.7491 58.9326 65.1847Z" fill="white"/>
<path d="M60.1435 64.313C59.442 63.5133 59.5463 62.4226 60.3659 61.7034C61.1953 60.9757 62.2855 61.0185 62.987 61.8182C63.6885 62.6179 63.5936 63.7092 62.7641 64.4371C61.9446 65.1563 60.845 65.1127 60.1435 64.313ZM62.3572 62.3707C61.9101 61.861 61.2853 61.8342 60.8304 62.2334C60.3808 62.6278 60.3259 63.251 60.773 63.7608C61.2202 64.2705 61.845 64.2973 62.2949 63.9025C62.7498 63.5034 62.8044 62.8805 62.3572 62.3707Z" fill="white"/>
<path d="M63.664 58.4038L64.2455 58.9401C64.1862 58.9848 64.1407 59.0242 64.1002 59.0683C63.672 59.5326 63.6751 60.0782 64.208 60.5695L65.4736 61.7369L64.9103 62.3477L62.3008 59.9409L62.837 59.3594L63.2183 59.7111C63.1068 59.2827 63.263 58.8388 63.664 58.4038Z" fill="white"/>
<path d="M68.1452 58.1884C68.1493 58.4438 68.0293 58.7291 67.8462 58.9657C67.3701 59.5809 66.7715 59.6808 66.1511 59.2008L64.7999 58.155L64.4419 58.6176L63.9161 58.2107L64.2742 57.7481L63.6328 57.2519L64.1415 56.5948L64.7828 57.0911L65.3646 56.3394L65.8904 56.7462L65.3086 57.4979L66.644 58.5313C66.9174 58.7429 67.1703 58.72 67.3656 58.4678C67.4713 58.331 67.5364 58.1713 67.5347 58.0102L68.1452 58.1884Z" fill="white"/>
<path d="M69.2786 53.9954L67.8014 56.357C68.2938 56.5473 68.805 56.3573 69.1327 55.8332C69.3443 55.495 69.4028 55.1631 69.317 54.8114L69.9873 54.7052C70.1393 55.1766 70.0441 55.7052 69.7197 56.2238C69.0886 57.2328 68.0315 57.4811 67.1353 56.9206C66.239 56.36 66.0089 55.2988 66.5695 54.4026C67.1195 53.5234 68.1358 53.265 69.077 53.8536C69.1335 53.889 69.2146 53.9474 69.2786 53.9954ZM67.3303 56.0701L68.3984 54.3623C67.9291 54.1472 67.4224 54.2928 67.1333 54.7551C66.8478 55.2117 66.9328 55.7275 67.3303 56.0701Z" fill="white"/>
<path d="M68.7344 50.3804L69.4448 50.7288C69.4006 50.7886 69.3683 50.8394 69.3419 50.8932C69.0635 51.4601 69.2221 51.9822 69.8726 52.3014L71.4185 53.06L71.0524 53.8059L67.8652 52.2421L68.2136 51.5318L68.6793 51.7602C68.4506 51.3814 68.4738 50.9117 68.7344 50.3804Z" fill="white"/>
</svg>
