<svg width="90" height="78" viewBox="0 0 90 78" fill="none" xmlns="http://www.w3.org/2000/svg">
<path d="M83.8867 39C83.8867 60.5391 66.4258 78 44.8867 78C23.3476 78 5.88672 60.5391 5.88672 39C5.88672 17.4609 23.3476 0 44.8867 0C66.4258 0 83.8867 17.4609 83.8867 39Z" fill="#091543"/>
<path d="M82.416 39C82.416 59.7263 65.614 76.5283 44.8877 76.5283C24.1614 76.5283 7.35938 59.7263 7.35938 39C7.35938 18.2737 24.1614 1.47168 44.8877 1.47168C65.614 1.47168 82.416 18.2737 82.416 39Z" fill="white"/>
<path fill-rule="evenodd" clip-rule="evenodd" d="M44.8877 75.9922C65.3179 75.9922 81.8799 59.4302 81.8799 39C81.8799 18.5698 65.3179 2.0078 44.8877 2.0078C24.4575 2.0078 7.89549 18.5698 7.89549 39C7.89549 59.4302 24.4575 75.9922 44.8877 75.9922ZM44.8877 76.5283C65.614 76.5283 82.416 59.7263 82.416 39C82.416 18.2737 65.614 1.47168 44.8877 1.47168C24.1614 1.47168 7.35938 18.2737 7.35938 39C7.35938 59.7263 24.1614 76.5283 44.8877 76.5283Z" fill="black"/>
<path fill-rule="evenodd" clip-rule="evenodd" d="M79.4684 39.4903L79.2048 39.4867C79.2069 39.3247 79.208 39.1625 79.208 39C79.208 38.8374 79.2069 38.6752 79.2048 38.5132L79.4684 38.5096C79.4705 38.6728 79.4716 38.8363 79.4716 39C79.4716 39.1637 79.4705 39.3271 79.4684 39.4903ZM79.4429 37.5337L79.1795 37.5444C79.1668 37.2205 79.1499 36.8977 79.1289 36.5761L79.3919 36.5581C79.4131 36.8821 79.4301 37.2073 79.4429 37.5337ZM79.3153 35.5855C79.2854 35.2603 79.2512 34.9363 79.2129 34.6137L78.9512 34.6461C78.9893 34.9663 79.0231 35.2879 79.0528 35.6107L79.3153 35.5855ZM79.085 33.6472L78.8243 33.6868C78.7776 33.3661 78.7266 33.0468 78.6716 32.7289L78.9312 32.6821C78.9866 33.0023 79.0379 33.3241 79.085 33.6472ZM78.7522 31.7245L78.494 31.7785C78.4302 31.4608 78.3624 31.1447 78.2904 30.8302L78.5471 30.769C78.6196 31.0859 78.688 31.4044 78.7522 31.7245ZM78.3172 29.8221L78.0622 29.8904C77.9817 29.5771 77.8971 29.2655 77.8085 28.9556L78.0615 28.8802C78.1508 29.1925 78.236 29.5065 78.3172 29.8221ZM77.7811 27.947L77.5302 28.0294C77.4331 27.7214 77.332 27.4151 77.2271 27.1107L77.4757 27.0214C77.5815 27.328 77.6833 27.6366 77.7811 27.947ZM77.1457 26.1047L76.8995 26.201C76.7862 25.899 76.669 25.599 76.5479 25.301L76.7914 25.1979C76.9134 25.4982 77.0315 25.8005 77.1457 26.1047ZM76.4128 24.3007L76.1722 24.4105C76.043 24.1154 75.91 23.8225 75.7732 23.5317L76.0109 23.4152C76.1486 23.7082 76.2826 24.0034 76.4128 24.3007ZM75.5849 22.5401L75.3505 22.6631C75.2057 22.3756 75.0573 22.0904 74.9052 21.8076L75.1363 21.6781C75.2895 21.9631 75.4391 22.2505 75.5849 22.5401ZM74.6645 20.8281L74.437 20.9639C74.2771 20.6848 74.1137 20.4082 73.9468 20.134L74.1706 19.9919C74.3388 20.2682 74.5035 20.5469 74.6645 20.8281ZM73.6546 19.1695L73.4346 19.3177C73.2602 19.0479 73.0823 18.7806 72.901 18.5159L73.1171 18.3617C73.2997 18.6284 73.4789 18.8977 73.6546 19.1695ZM72.5584 17.5691L72.3465 17.7292C72.1581 17.4694 71.9663 17.2122 71.7713 16.9579L71.9788 16.792C72.1754 17.0483 72.3686 17.3074 72.5584 17.5691ZM71.3791 16.0314L71.176 16.2029C70.9742 15.9538 70.7691 15.7076 70.5609 15.4643L70.7594 15.2872C70.9692 15.5324 71.1758 15.7804 71.3791 16.0314ZM70.1203 14.5606C69.9041 14.3213 69.6847 14.0849 69.4623 13.8517L69.2734 14.0394C69.4942 14.2709 69.712 14.5055 69.9266 14.743L70.1203 14.5606ZM68.7859 13.1612L68.602 13.354C68.3752 13.1286 68.1454 12.9063 67.9127 12.6872L68.0914 12.4894C68.3259 12.7101 68.5574 12.9341 68.7859 13.1612ZM67.3796 11.8371L67.2062 12.0397C66.9678 11.8271 66.7266 11.6178 66.4827 11.4117L66.6507 11.2044C66.8965 11.412 67.1395 11.6229 67.3796 11.8371ZM65.9056 10.5922L65.7431 10.8041C65.4939 10.6049 65.242 10.4092 64.9875 10.2168L65.1443 10.0006C65.4007 10.1943 65.6545 10.3916 65.9056 10.5922ZM64.3679 9.43026L64.2168 9.65078C63.9576 9.4657 63.6957 9.28411 63.4314 9.10608L63.5765 8.88148C63.8429 9.06085 64.1067 9.2438 64.3679 9.43026ZM62.7709 8.35474L62.6318 8.58327C62.3632 8.41284 62.0922 8.24601 61.8188 8.08286L61.9518 7.85056C62.2272 8.01495 62.5003 8.18303 62.7709 8.35474ZM61.1192 7.36898L60.9924 7.60487C60.7152 7.44963 60.4359 7.2981 60.1543 7.15034L60.2747 6.91102C60.5585 7.05989 60.84 7.21257 61.1192 7.36898ZM59.4175 6.47617L59.3034 6.71875C59.0186 6.57916 58.7316 6.44339 58.4425 6.31149L58.5501 6.06584C58.8413 6.19873 59.1305 6.33553 59.4175 6.47617ZM57.6712 5.67935L57.5702 5.92791C57.2783 5.80433 56.9844 5.68467 56.6886 5.56899L56.7829 5.31772C57.0809 5.43428 57.3771 5.55484 57.6712 5.67935ZM55.8849 4.98083C55.5845 4.87285 55.2823 4.7689 54.9782 4.66904L54.8975 4.92519C55.1992 5.0243 55.4992 5.12747 55.7974 5.23464L55.8849 4.98083ZM54.064 4.38281L53.9902 4.64112C53.6866 4.55068 53.3813 4.46432 53.0744 4.38211L53.1413 4.12184C53.4506 4.20468 53.7582 4.29169 54.064 4.38281ZM52.2138 3.88709L52.1538 4.14912C51.8457 4.07568 51.5361 4.00639 51.2249 3.94131L51.2778 3.67771C51.5913 3.74328 51.9034 3.8131 52.2138 3.88709ZM50.3398 3.49502L50.2939 3.75999C49.9825 3.70381 49.6697 3.65183 49.3555 3.6041L49.3943 3.33795C49.7109 3.38604 50.026 3.43842 50.3398 3.49502ZM48.4476 3.20746L48.4158 3.47458C48.1021 3.43575 47.7872 3.40114 47.471 3.37082L47.4956 3.10292C47.8142 3.13347 48.1315 3.16833 48.4476 3.20746ZM46.5428 3.02474L46.5252 3.29322C46.2102 3.27171 45.894 3.25445 45.5767 3.24149L45.5872 2.97263C45.9069 2.98568 46.2254 3.00307 46.5428 3.02474ZM44.6312 2.94663L44.6277 3.21568C44.469 3.21352 44.31 3.21244 44.1508 3.21244C43.9916 3.21244 43.8327 3.21352 43.674 3.21568L43.6705 2.94663C43.8303 2.94445 43.9905 2.94336 44.1508 2.94336C44.3112 2.94336 44.4713 2.94445 44.6312 2.94663ZM42.7145 2.97263L42.725 3.2415C42.4077 3.25445 42.0915 3.27171 41.7764 3.29322L41.7588 3.02474C42.0762 3.00307 42.3948 2.98568 42.7145 2.97263ZM40.806 3.10292L40.8307 3.37082C40.5145 3.40114 40.1995 3.43575 39.8858 3.47458L39.8541 3.20746C40.1701 3.16833 40.4875 3.13347 40.806 3.10292ZM38.9073 3.33795L38.9461 3.6041C38.632 3.65183 38.3191 3.70382 38.0078 3.76L37.9619 3.49502C38.2756 3.43842 38.5908 3.38604 38.9073 3.33795ZM37.0238 3.67771L37.0767 3.94131C36.7656 4.00639 36.4559 4.07569 36.1478 4.14913L36.0879 3.8871C36.3983 3.8131 36.7103 3.74328 37.0238 3.67771ZM35.1603 4.12184L35.2272 4.38211C34.9203 4.46433 34.615 4.55068 34.3115 4.64112L34.2376 4.38282C34.5435 4.2917 34.8511 4.20468 35.1603 4.12184ZM33.3235 4.66905L33.4042 4.9252C33.1024 5.02431 32.8024 5.12747 32.5043 5.23464L32.4167 4.98084C32.7171 4.87286 33.0194 4.76891 33.3235 4.66905ZM31.5188 5.31772L31.6131 5.56899C31.3172 5.68468 31.0233 5.80434 30.7314 5.92791L30.6305 5.67936C30.9246 5.55485 31.2207 5.43428 31.5188 5.31772ZM29.7515 6.06585L29.8591 6.3115C29.5701 6.4434 29.2831 6.57917 28.9982 6.71876L28.8842 6.47618C29.1712 6.33554 29.4603 6.19874 29.7515 6.06585ZM28.0269 6.91103L28.1474 7.15035C27.8658 7.2981 27.5864 7.44964 27.3093 7.60488L27.1825 7.36899C27.4617 7.21257 27.7432 7.0599 28.0269 6.91103ZM26.3498 7.85057L26.4829 8.08286C26.2095 8.24602 25.9385 8.41285 25.6699 8.58328L25.5307 8.35475C25.8013 8.18304 26.0744 8.01495 26.3498 7.85057ZM24.7251 8.88149L24.8703 9.10609C24.6059 9.28412 24.3441 9.46571 24.0848 9.65079L23.9338 9.43027C24.195 9.24381 24.4588 9.06086 24.7251 8.88149ZM23.1574 10.0006L23.3142 10.2168C23.0597 10.4092 22.8078 10.605 22.5586 10.8041L22.3961 10.5922C22.6471 10.3916 22.9009 10.1943 23.1574 10.0006ZM21.651 11.2044L21.819 11.4117C21.575 11.6178 21.3338 11.8271 21.0955 12.0397L20.922 11.8371C21.1622 11.6229 21.4052 11.412 21.651 11.2044ZM20.2102 12.4894L20.3889 12.6872C20.1562 12.9063 19.9264 13.1286 19.6996 13.354L19.5158 13.1612C19.7443 12.9341 19.9758 12.7102 20.2102 12.4894ZM18.8393 13.8517L19.0282 14.0394C18.8074 14.2709 18.5897 14.5055 18.3751 14.743L18.1813 14.5606C18.3975 14.3213 18.6169 14.0849 18.8393 13.8517ZM17.5423 15.2872C17.3325 15.5324 17.1259 15.7804 16.9225 16.0314L17.1256 16.2029C17.3275 15.9538 17.5325 15.7076 17.7408 15.4643L17.5423 15.2872ZM16.3228 16.792L16.5304 16.9579C16.3353 17.2123 16.1435 17.4694 15.9551 17.7292L15.7433 17.5691C15.9331 17.3074 16.1263 17.0483 16.3228 16.792ZM15.1846 18.3617L15.4006 18.5159C15.2193 18.7806 15.0414 19.0479 14.867 19.3177L14.647 19.1696C14.8227 18.8977 15.0019 18.6284 15.1846 18.3617ZM14.131 19.992L14.3549 20.134C14.1879 20.4082 14.0245 20.6849 13.8647 20.9639L13.6371 20.8281C13.7982 20.547 13.9628 20.2682 14.131 19.992ZM13.1654 21.6781L13.3965 21.8076C13.2444 22.0905 13.0959 22.3757 12.9512 22.6631L12.7168 22.5401C12.8626 22.2505 13.0122 21.9631 13.1654 21.6781ZM12.2908 23.4153L12.5284 23.5317C12.3917 23.8225 12.2587 24.1154 12.1295 24.4105L11.8888 24.3007C12.019 24.0034 12.153 23.7082 12.2908 23.4153ZM11.5102 25.1979L11.7537 25.301C11.6327 25.599 11.5154 25.899 11.4021 26.201L11.156 26.1047C11.2702 25.8005 11.3883 25.4982 11.5102 25.1979ZM10.826 27.0214L11.0746 27.1108C10.9696 27.4151 10.8686 27.7214 10.7715 28.0294L10.5205 27.947C10.6184 27.6366 10.7202 27.3281 10.826 27.0214ZM10.2402 28.8803L10.4932 28.9556C10.4046 29.2655 10.32 29.5771 10.2395 29.8904L9.98451 29.8221C10.0657 29.5065 10.1509 29.1925 10.2402 28.8803ZM9.75455 30.769L10.0112 30.8302C9.93929 31.1447 9.87142 31.4608 9.80766 31.7785L9.54944 31.7245C9.61367 31.4044 9.68207 31.0859 9.75455 30.769ZM9.37048 32.6821L9.63005 32.7289C9.57501 33.0468 9.52409 33.3661 9.47733 33.6868L9.21662 33.6472C9.26372 33.3241 9.31503 33.0024 9.37048 32.6821ZM9.08879 34.6137L9.35046 34.6461C9.31242 34.9663 9.27851 35.2879 9.24881 35.6107L8.98638 35.5855C9.0163 35.2603 9.05046 34.9363 9.08879 34.6137ZM8.9098 36.5581L9.1728 36.5761C9.15173 36.8977 9.13482 37.2205 9.12213 37.5444L8.85875 37.5337C8.87154 37.2074 8.88857 36.8822 8.9098 36.5581ZM8.83328 38.5096C8.83115 38.6728 8.83008 38.8363 8.83008 39C8.83008 39.1637 8.83115 39.3271 8.83328 39.4903L9.09684 39.4867C9.09473 39.3247 9.09367 39.1625 9.09367 39C9.09367 38.8375 9.09473 38.6752 9.09684 38.5132L8.83328 38.5096ZM8.85875 40.4663L9.12213 40.4555C9.13482 40.7794 9.15173 41.1022 9.1728 41.4239L8.9098 41.4418C8.88857 41.1178 8.87154 40.7926 8.85875 40.4663ZM8.98638 42.4144L9.24881 42.3893C9.27852 42.7121 9.31242 43.0336 9.35046 43.3538L9.08879 43.3862C9.05046 43.0636 9.01631 42.7396 8.98638 42.4144ZM9.21662 44.3527L9.47734 44.3131C9.52409 44.6338 9.57502 44.9531 9.63005 45.271L9.37048 45.3178C9.31503 44.9976 9.26373 44.6758 9.21662 44.3527ZM9.54944 46.2754L9.80766 46.2214C9.87142 46.5391 9.9393 46.8552 10.0112 47.1697L9.75455 47.2309C9.68207 46.914 9.61368 46.5955 9.54944 46.2754ZM9.98451 48.1778L10.2395 48.1095C10.32 48.4228 10.4046 48.7344 10.4932 49.0443L10.2402 49.1197C10.1509 48.8074 10.0657 48.4935 9.98451 48.1778ZM10.5205 50.0529L10.7715 49.9705C10.8686 50.2786 10.9696 50.5848 11.0746 50.8892L10.826 50.9785C10.7202 50.6719 10.6184 50.3633 10.5205 50.0529ZM11.156 51.8952L11.4021 51.7989C11.5155 52.1009 11.6327 52.4009 11.7537 52.6989L11.5102 52.802C11.3883 52.5018 11.2702 52.1995 11.156 51.8952ZM11.8888 53.6992L12.1295 53.5894C12.2587 53.8845 12.3917 54.1775 12.5284 54.4682L12.2908 54.5847C12.153 54.2917 12.019 53.9965 11.8888 53.6992ZM12.7168 55.4598L12.9512 55.3368C13.0959 55.6243 13.2444 55.9095 13.3965 56.1924L13.1654 56.3218C13.0122 56.0368 12.8626 55.7494 12.7168 55.4598ZM13.6371 57.1718L13.8647 57.036C14.0245 57.3151 14.1879 57.5917 14.3549 57.8659L14.131 58.008C13.9628 57.7317 13.7982 57.453 13.6371 57.1718ZM14.647 58.8304L14.867 58.6822C15.0414 58.952 15.2193 59.2193 15.4006 59.484L15.1846 59.6382C15.0019 59.3715 14.8227 59.1022 14.647 58.8304ZM15.7433 60.4308L15.9551 60.2707C16.1435 60.5305 16.3353 60.7877 16.5304 61.0421L16.3228 61.2079C16.1263 60.9516 15.9331 60.6926 15.7433 60.4308ZM16.9225 61.9686C17.1259 62.2195 17.3325 62.4675 17.5423 62.7127L17.7408 62.5356C17.5325 62.2923 17.3275 62.0461 17.1256 61.797L16.9225 61.9686ZM18.1813 63.4393L18.3751 63.2569C18.5897 63.4945 18.8074 63.729 19.0282 63.9606L18.8394 64.1483C18.6169 63.915 18.3976 63.6787 18.1813 63.4393ZM19.5158 64.8388L19.6996 64.646C19.9264 64.8713 20.1562 65.0936 20.3889 65.3127L20.2102 65.5105C19.9758 65.2898 19.7443 65.0658 19.5158 64.8388ZM20.922 66.1628L21.0955 65.9602C21.3338 66.1728 21.575 66.3822 21.819 66.5882L21.651 66.7955C21.4052 66.5879 21.1622 66.377 20.922 66.1628ZM22.3961 67.4077L22.5586 67.1958C22.8078 67.395 23.0597 67.5908 23.3142 67.7831L23.1574 67.9994C22.9009 67.8056 22.6472 67.6083 22.3961 67.4077ZM23.9338 68.5697C24.195 68.7561 24.4588 68.9391 24.7251 69.1184L24.8703 68.8938C24.606 68.7158 24.3441 68.5342 24.0848 68.3491L23.9338 68.5697ZM25.5307 69.6452L25.6699 69.4166C25.9385 69.5871 26.2095 69.7539 26.4829 69.9171L26.3498 70.1494C26.0744 69.985 25.8014 69.8169 25.5307 69.6452ZM27.1825 70.6309L27.3093 70.3951C27.5864 70.5503 27.8658 70.7018 28.1474 70.8496L28.0269 71.0889C27.7432 70.94 27.4617 70.7874 27.1825 70.6309ZM28.8842 71.5237L28.9982 71.2812C29.2831 71.4208 29.5701 71.5565 29.8591 71.6884L29.7515 71.9341C29.4603 71.8012 29.1712 71.6644 28.8842 71.5237ZM30.6305 72.3206L30.7315 72.072C31.0234 72.1956 31.3173 72.3152 31.6131 72.4309L31.5188 72.6822C31.2207 72.5656 30.9246 72.4451 30.6305 72.3206ZM32.4167 73.0191L32.5043 72.7653C32.8024 72.8725 33.1024 72.9756 33.4042 73.0747L33.3235 73.3309C33.0194 73.231 32.7171 73.1271 32.4167 73.0191ZM34.2377 73.6171L34.3115 73.3588C34.6151 73.4492 34.9203 73.5356 35.2272 73.6178L35.1603 73.8781C34.8511 73.7952 34.5435 73.7082 34.2377 73.6171ZM36.0879 74.1128L36.1478 73.8508C36.4559 73.9242 36.7656 73.9935 37.0767 74.0586L37.0238 74.3222C36.7103 74.2566 36.3983 74.1868 36.0879 74.1128ZM37.9619 74.5049L38.0078 74.2399C38.3192 74.2961 38.632 74.3481 38.9461 74.3958L38.9073 74.662C38.5908 74.6139 38.2756 74.5615 37.9619 74.5049ZM39.8541 74.7925L39.8858 74.5253C40.1995 74.5642 40.5145 74.5988 40.8307 74.6291L40.8061 74.897C40.4875 74.8665 40.1701 74.8316 39.8541 74.7925ZM41.7588 74.9752L41.7764 74.7067C42.0915 74.7282 42.4077 74.7455 42.725 74.7584L42.7145 75.0273C42.3948 75.0142 42.0762 74.9969 41.7588 74.9752ZM43.6705 75.0533L43.674 74.7842C43.8327 74.7864 43.9916 74.7875 44.1508 74.7875C44.31 74.7875 44.469 74.7864 44.6277 74.7842L44.6312 75.0533C44.4713 75.0555 44.3112 75.0566 44.1508 75.0566C43.9905 75.0566 43.8304 75.0555 43.6705 75.0533ZM45.5872 75.0273L45.5767 74.7584C45.894 74.7455 46.2102 74.7282 46.5253 74.7067L46.5428 74.9752C46.2254 74.9969 45.9069 75.0142 45.5872 75.0273ZM47.4956 74.897L47.471 74.6291C47.7872 74.5988 48.1022 74.5642 48.4159 74.5253L48.4476 74.7925C48.1315 74.8316 47.8142 74.8665 47.4956 74.897ZM49.3943 74.662L49.3555 74.3958C49.6697 74.3481 49.9825 74.2961 50.2939 74.2399L50.3398 74.5049C50.026 74.5615 49.7109 74.6139 49.3943 74.662ZM51.2778 74.3222L51.2249 74.0586C51.5361 73.9935 51.8458 73.9242 52.1539 73.8508L52.2138 74.1128C51.9034 74.1868 51.5914 74.2566 51.2778 74.3222ZM53.1414 73.8781L53.0745 73.6178C53.3814 73.5356 53.6866 73.4492 53.9902 73.3588L54.064 73.6171C53.7582 73.7082 53.4506 73.7952 53.1414 73.8781ZM54.9782 73.3309L54.8975 73.0747C55.1993 72.9756 55.4993 72.8724 55.7974 72.7653L55.885 73.0191C55.5845 73.1271 55.2823 73.231 54.9782 73.3309ZM56.7829 72.6822L56.6886 72.4309C56.9844 72.3152 57.2783 72.1956 57.5702 72.072L57.6712 72.3206C57.3771 72.4451 57.081 72.5656 56.7829 72.6822ZM58.5501 71.9341L58.4426 71.6884C58.7316 71.5565 59.0186 71.4208 59.3034 71.2812L59.4175 71.5237C59.1305 71.6644 58.8414 71.8012 58.5501 71.9341ZM60.2748 71.0889L60.1543 70.8496C60.4359 70.7018 60.7153 70.5503 60.9924 70.395L61.1192 70.6309C60.84 70.7874 60.5585 70.94 60.2748 71.0889ZM61.9518 70.1494L61.8188 69.9171C62.0922 69.7539 62.3632 69.5871 62.6318 69.4166L62.7709 69.6452C62.5003 69.8169 62.2273 69.985 61.9518 70.1494ZM63.5765 69.1184L63.4314 68.8938C63.6957 68.7158 63.9576 68.5342 64.2168 68.3491L64.3679 68.5696C64.1067 68.7561 63.8429 68.9391 63.5765 69.1184ZM65.1443 67.9994L64.9875 67.7831C65.242 67.5907 65.4939 67.395 65.7431 67.1958L65.9056 67.4077C65.6545 67.6083 65.4007 67.8056 65.1443 67.9994ZM66.6507 66.7955C66.8965 66.5879 67.1395 66.377 67.3796 66.1628L67.2062 65.9602C66.9678 66.1728 66.7266 66.3821 66.4827 66.5882L66.6507 66.7955ZM68.0914 65.5105L67.9127 65.3127C68.1454 65.0936 68.3752 64.8713 68.602 64.646L68.7859 64.8388C68.5574 65.0658 68.3259 65.2898 68.0914 65.5105ZM69.4623 64.1482L69.2734 63.9605C69.4942 63.729 69.712 63.4944 69.9266 63.2569L70.1203 63.4393C69.9041 63.6786 69.6847 63.915 69.4623 64.1482ZM70.7594 62.7127L70.5609 62.5356C70.7691 62.2923 70.9742 62.0461 71.176 61.797L71.3791 61.9686C71.1758 62.2195 70.9692 62.4675 70.7594 62.7127ZM71.9788 61.2079L71.7713 61.042C71.9664 60.7877 72.1581 60.5305 72.3466 60.2707L72.5584 60.4308C72.3686 60.6926 72.1754 60.9516 71.9788 61.2079ZM73.1171 59.6382L72.9011 59.484C73.0824 59.2193 73.2602 58.952 73.4346 58.6822L73.6546 58.8304C73.4789 59.1022 73.2997 59.3715 73.1171 59.6382ZM74.1706 58.008L73.9468 57.8659C74.1137 57.5917 74.2772 57.3151 74.437 57.036L74.6645 57.1718C74.5035 57.453 74.3389 57.7317 74.1706 58.008ZM75.1363 56.3218L74.9052 56.1924C75.0573 55.9095 75.2057 55.6243 75.3505 55.3368L75.5849 55.4598C75.4391 55.7494 75.2895 56.0368 75.1363 56.3218ZM76.0109 54.5847L75.7732 54.4682C75.91 54.1774 76.043 53.8845 76.1722 53.5894L76.4128 53.6992C76.2827 53.9965 76.1486 54.2917 76.0109 54.5847ZM76.7914 52.802L76.548 52.6989C76.669 52.4009 76.7862 52.1009 76.8995 51.7989L77.1457 51.8952C77.0315 52.1994 76.9134 52.5017 76.7914 52.802ZM77.4757 50.9785C77.5815 50.6719 77.6833 50.3633 77.7811 50.0529L77.5302 49.9705C77.4331 50.2785 77.3321 50.5848 77.2271 50.8892L77.4757 50.9785ZM78.0615 49.1197L77.8085 49.0443C77.8971 48.7344 77.9817 48.4228 78.0622 48.1095L78.3172 48.1778C78.236 48.4935 78.1508 48.8074 78.0615 49.1197ZM78.5471 47.2309L78.2904 47.1697C78.3624 46.8552 78.4303 46.5391 78.494 46.2214L78.7522 46.2754C78.688 46.5955 78.6196 46.914 78.5471 47.2309ZM78.9312 45.3178C78.9866 44.9976 79.0379 44.6758 79.085 44.3527L78.8243 44.3131C78.7776 44.6338 78.7266 44.9531 78.6716 45.271L78.9312 45.3178ZM79.2129 43.3862L78.9512 43.3538C78.9893 43.0336 79.0231 42.712 79.0528 42.3893L79.3153 42.4144C79.2854 42.7396 79.2512 43.0636 79.2129 43.3862ZM79.3919 41.4418L79.1289 41.4238C79.1499 41.1022 79.1668 40.7794 79.1795 40.4555L79.4429 40.4663C79.4301 40.7926 79.4131 41.1178 79.3919 41.4418Z" fill="black"/>
<path d="M34.7327 11.7337L33.8496 10.3018L32.9666 11.7337L30.9062 11.9723L32.3779 13.0463L32.0836 14.7169L33.8496 14.0009L35.6157 14.7169L35.3213 13.0463L36.793 11.9723L34.7327 11.7337Z" fill="#091543"/>
<path d="M46.4326 8.75056L44.8873 5.88672L43.342 8.75056L39.7363 9.22787L42.3118 11.3758L41.7967 14.7169L44.8873 13.285L47.9778 14.7169L47.4627 11.3758L50.0382 9.22787L46.4326 8.75056Z" fill="#091543"/>
<path d="M56.8069 11.7337L55.9239 10.3018L55.0408 11.7337L52.9805 11.9723L54.4522 13.0463L54.1578 14.7169L55.9239 14.0009L57.6899 14.7169L57.3956 13.0463L58.8673 11.9723L56.8069 11.7337Z" fill="#091543"/>
<path d="M29.8761 17.1431L29.4346 16.1885L28.9931 17.1431L27.9629 17.3022L28.6987 18.0182L28.5516 19.1319L29.4346 18.6546L30.3176 19.1319L30.1704 18.0182L30.9063 17.3022L29.8761 17.1431Z" fill="#091543"/>
<path d="M62.2531 17.1431L61.8115 16.1885L61.37 17.1431L60.3398 17.3022L61.0757 18.0182L60.9285 19.1319L61.8115 18.6546L62.6946 19.1319L62.5474 18.0182L63.2832 17.3022L62.2531 17.1431Z" fill="#091543"/>
<path d="M69.6538 21.8705C68.3079 22.5948 66.4858 21.3539 64.7578 18.771C69.0778 20.8373 69.3658 20.3207 68.7898 16.188C71.0937 19.5458 71.0937 21.0956 69.6538 21.8705Z" fill="#091543"/>
<path d="M73.0412 32.4118C71.459 32.8762 69.9731 30.987 68.9792 27.6013C72.7608 31.088 73.2062 30.5787 73.8413 25.7415C75.1918 30.1581 74.734 31.9149 73.0412 32.4118Z" fill="#091543"/>
<path d="M62.6842 62.259C61.3312 60.6504 62.5546 57.7915 65.6487 54.649C63.9525 61.1587 64.7393 61.392 70.2705 59.3413C66.2633 63.5048 64.1319 63.9801 62.6842 62.259Z" fill="#091543"/>
<path d="M71.6885 27.2233C70.278 27.81 68.7198 26.2192 67.4644 23.2009C71.2973 26.0323 71.6564 25.5186 71.7555 20.9998C73.4428 24.9318 73.1977 26.5957 71.6885 27.2233Z" fill="#091543"/>
<path d="M66.4905 58.2603C65.1873 56.8401 66.2269 54.1293 68.9878 51.0598C67.6281 57.1761 68.3634 57.3517 73.4133 55.1679C69.8409 59.2301 67.8847 59.7799 66.4905 58.2603Z" fill="#091543"/>
<path d="M73.244 36.9298C71.5127 37.0714 70.1347 34.986 69.4393 31.5667C73.0871 35.6135 73.6149 35.2126 74.8058 30.719C75.7704 35.1897 75.0965 36.7783 73.244 36.9298Z" fill="#091543"/>
<path d="M58.4623 65.7402C57.2791 63.8233 58.6293 60.9087 61.7784 57.9423C59.7408 64.7266 60.4745 65.0848 65.8721 63.6254C61.7876 67.5681 59.7281 67.7911 58.4623 65.7402Z" fill="#091543"/>
<path d="M73.2313 41.7901C71.4978 41.6786 70.4374 39.4151 70.2462 35.9311C73.0438 39.7953 73.8477 40.1449 75.6789 35.8721C75.9837 40.4355 75.0861 41.9094 73.2313 41.7901Z" fill="#091543"/>
<path d="M53.6163 67.5707C52.9366 65.4007 54.9519 62.9537 58.7214 60.9439C55.7384 66.3249 55.7236 67.4831 61.3038 67.5362C56.3915 70.235 54.3435 69.8925 53.6163 67.5707Z" fill="#091543"/>
<path fill-rule="evenodd" clip-rule="evenodd" d="M71.5099 51.8781C67.6531 60.9951 58.5903 66.769 45.6446 67.6974L45.625 67.4336C58.4974 66.5105 67.4535 60.7783 71.2615 51.7765C75.0725 42.7679 73.7445 30.4459 65.9559 16.314L66.1924 16.188C74.0023 30.3585 75.3637 42.768 71.5099 51.8781Z" fill="#091543"/>
<path d="M20.1236 21.8705C21.4695 22.5948 23.2916 21.3539 25.0195 18.771C20.6996 20.8373 20.4116 20.3207 20.9876 16.188C18.6836 19.5458 18.6836 21.0956 20.1236 21.8705Z" fill="#091543"/>
<path d="M16.7362 32.4118C18.3184 32.8762 19.8043 30.987 20.7981 27.6013C17.0166 31.088 16.5712 30.5787 15.9361 25.7415C14.5855 30.1581 15.0433 31.9149 16.7362 32.4118Z" fill="#091543"/>
<path d="M27.0931 62.259C28.4461 60.6504 27.2228 57.7915 24.1286 54.649C25.8249 61.1587 25.038 61.392 19.5069 59.3413C23.514 63.5048 25.6455 63.9801 27.0931 62.259Z" fill="#091543"/>
<path d="M18.0888 27.2233C19.4993 27.81 21.0576 26.2192 22.3129 23.2009C18.48 26.0323 18.121 25.5186 18.0219 20.9998C16.3345 24.9318 16.5797 26.5957 18.0888 27.2233Z" fill="#091543"/>
<path d="M23.281 58.2603C24.5842 56.8401 23.5446 54.1293 20.7837 51.0598C22.1434 57.1761 21.4081 57.3517 16.3581 55.1679C19.9306 59.2301 21.8868 59.7799 23.281 58.2603Z" fill="#091543"/>
<path d="M16.5314 36.9298C18.2627 37.0714 19.6407 34.986 20.3361 31.5667C16.6883 35.6135 16.1605 35.2126 14.9696 30.719C14.005 35.1897 14.6789 36.7783 16.5314 36.9298Z" fill="#091543"/>
<path d="M31.3151 65.7402C32.4982 63.8233 31.1481 60.9087 27.9989 57.9423C30.0365 64.7266 29.3028 65.0848 23.9052 63.6254C27.9897 67.5681 30.0492 67.7911 31.3151 65.7402Z" fill="#091543"/>
<path d="M16.546 41.7901C18.2796 41.6786 19.34 39.4151 19.5312 35.9311C16.7335 39.7953 15.9296 40.1449 14.0984 35.8721C13.7937 40.4355 14.6913 41.9094 16.546 41.7901Z" fill="#091543"/>
<path d="M36.1533 67.5707C36.833 65.4007 34.8177 62.9537 31.0482 60.9439C34.0312 66.3249 34.0459 67.4831 28.4658 67.5362C33.378 70.235 35.426 69.8925 36.1533 67.5707Z" fill="#091543"/>
<path fill-rule="evenodd" clip-rule="evenodd" d="M18.2675 51.8781C22.1242 60.9951 31.1871 66.769 44.1328 67.6974L44.1523 67.4336C31.2799 66.5105 22.3238 60.7783 18.5158 51.7765C14.7049 42.7679 16.0328 30.4459 23.8214 16.314L23.585 16.188C15.7751 30.3585 14.4136 42.768 18.2675 51.8781Z" fill="#091543"/>
<path d="M4.41602 55.9245V41.2075H83.8877V55.9245H4.41602Z" fill="#091543"/>
<path d="M0 61.8112H10.3019V47.0942H0L3.25323 54.84L0 61.8112Z" fill="#091543"/>
<path d="M89.7734 61.8112H79.4716V45.6226H89.7734L86.5202 54.1429L89.7734 61.8112Z" fill="#091543"/>
<path d="M10.3028 61.8111V55.9243H4.41602L10.3028 61.8111Z" fill="black"/>
<path d="M79.4716 61.8111V55.9243H83.8867L79.4716 61.8111Z" fill="black"/>
<path d="M19.9356 44.1896V44.548H19.0196V47.5655H18.5809V44.548H17.6602V44.1896H19.9356Z" fill="white"/>
<path d="M21.999 47.5994C21.6873 47.5994 21.4028 47.5268 21.1457 47.3815C20.8886 47.2329 20.6845 47.0279 20.5335 46.7664C20.3856 46.5016 20.3117 46.2045 20.3117 45.8752C20.3117 45.5458 20.3856 45.2503 20.5335 44.9888C20.6845 44.724 20.8886 44.519 21.1457 44.3737C21.4028 44.2251 21.6873 44.1509 21.999 44.1509C22.314 44.1509 22.6 44.2251 22.8571 44.3737C23.1142 44.519 23.3167 44.7224 23.4646 44.984C23.6124 45.2455 23.6863 45.5426 23.6863 45.8752C23.6863 46.2077 23.6124 46.5048 23.4646 46.7664C23.3167 47.0279 23.1142 47.2329 22.8571 47.3815C22.6 47.5268 22.314 47.5994 21.999 47.5994ZM21.999 47.2168C22.2336 47.2168 22.4441 47.1619 22.6305 47.0521C22.8202 46.9423 22.968 46.7857 23.0741 46.5823C23.1833 46.3789 23.238 46.1432 23.238 45.8752C23.238 45.6039 23.1833 45.3682 23.0741 45.168C22.968 44.9646 22.8218 44.808 22.6354 44.6982C22.449 44.5884 22.2368 44.5335 21.999 44.5335C21.7612 44.5335 21.5491 44.5884 21.3627 44.6982C21.1762 44.808 21.0284 44.9646 20.9191 45.168C20.8131 45.3682 20.76 45.6039 20.76 45.8752C20.76 46.1432 20.8131 46.3789 20.9191 46.5823C21.0284 46.7857 21.1762 46.9423 21.3627 47.0521C21.5523 47.1619 21.7644 47.2168 21.999 47.2168Z" fill="white"/>
<path d="M26.512 45.1777C26.512 45.4586 26.4156 45.6927 26.2227 45.88C26.0331 46.0641 25.7422 46.1561 25.3502 46.1561H24.7042V47.5655H24.2655V44.1896H25.3502C25.7294 44.1896 26.017 44.2817 26.2131 44.4657C26.4123 44.6498 26.512 44.8871 26.512 45.1777ZM25.3502 45.7928C25.5944 45.7928 25.7744 45.7395 25.8901 45.633C26.0058 45.5264 26.0636 45.3747 26.0636 45.1777C26.0636 44.7612 25.8258 44.5529 25.3502 44.5529H24.7042V45.7928H25.3502Z" fill="white"/>
<path d="M32.5656 44.1896L31.5917 47.5655H31.1L30.319 44.8483L29.5091 47.5655L29.0222 47.5704L28.0822 44.1896H28.5498L29.2825 47.0521L30.0925 44.1896H30.5842L31.3555 47.0424L32.0931 44.1896H32.5656Z" fill="white"/>
<path d="M33.4843 44.548V45.6766H34.7088V46.0398H33.4843V47.2023H34.8535V47.5655H33.0456V44.1848H34.8535V44.548H33.4843Z" fill="white"/>
<path d="M37.1998 45.8267C37.3219 45.8461 37.4328 45.8961 37.5324 45.9769C37.6352 46.0576 37.7156 46.1577 37.7734 46.2772C37.8345 46.3966 37.865 46.5242 37.865 46.6598C37.865 46.8309 37.8217 46.9859 37.7349 47.1248C37.6481 47.2604 37.5212 47.3686 37.354 47.4493C37.1901 47.5268 36.9957 47.5655 36.7707 47.5655H35.5173V44.1896H36.7225C36.9507 44.1896 37.1451 44.2284 37.3058 44.3059C37.4665 44.3801 37.587 44.4818 37.6674 44.611C37.7477 44.7402 37.7879 44.8855 37.7879 45.0469C37.7879 45.2471 37.7333 45.4134 37.624 45.5458C37.5179 45.675 37.3765 45.7686 37.1998 45.8267ZM35.956 45.6475H36.6936C36.8993 45.6475 37.0583 45.5991 37.1708 45.5022C37.2833 45.4053 37.3396 45.2713 37.3396 45.1002C37.3396 44.9291 37.2833 44.7951 37.1708 44.6982C37.0583 44.6013 36.896 44.5529 36.6839 44.5529H35.956V45.6475ZM36.7321 47.2023C36.9507 47.2023 37.121 47.1506 37.2431 47.0473C37.3653 46.9439 37.4263 46.8003 37.4263 46.6162C37.4263 46.4289 37.3621 46.282 37.2335 46.1755C37.1049 46.0657 36.933 46.0108 36.7177 46.0108H35.956V47.2023H36.7321Z" fill="white"/>
<path d="M40.8052 44.1896C41.1716 44.1896 41.4882 44.259 41.7549 44.3979C42.0249 44.5335 42.2306 44.7289 42.372 44.984C42.5166 45.239 42.5889 45.5393 42.5889 45.8848C42.5889 46.2303 42.5166 46.5306 42.372 46.7857C42.2306 47.0376 42.0249 47.2313 41.7549 47.3669C41.4882 47.4993 41.1716 47.5655 40.8052 47.5655H39.7591V44.1896H40.8052ZM40.8052 47.2023C41.2391 47.2023 41.5701 47.0876 41.7983 46.8584C42.0265 46.6259 42.1406 46.3014 42.1406 45.8848C42.1406 45.4651 42.0249 45.1373 41.7935 44.9016C41.5653 44.6659 41.2359 44.548 40.8052 44.548H40.1978V47.2023H40.8052Z" fill="white"/>
<path d="M43.6063 44.548V45.6766H44.8308V46.0398H43.6063V47.2023H44.9754V47.5655H43.1676V44.1848H44.9754V44.548H43.6063Z" fill="white"/>
<path d="M48.416 44.1896L47.1481 47.5655H46.642L45.3741 44.1896H45.8417L46.8975 47.1006L47.9532 44.1896H48.416Z" fill="white"/>
<path d="M49.3358 44.548V45.6766H50.5603V46.0398H49.3358V47.2023H50.7049V47.5655H48.8971V44.1848H50.7049V44.548H49.3358Z" fill="white"/>
<path d="M51.8074 47.2071H52.9837V47.5655H51.3687V44.1896H51.8074V47.2071Z" fill="white"/>
<path d="M54.973 47.5994C54.6612 47.5994 54.3768 47.5268 54.1197 47.3815C53.8626 47.2329 53.6585 47.0279 53.5074 46.7664C53.3596 46.5016 53.2857 46.2045 53.2857 45.8752C53.2857 45.5458 53.3596 45.2503 53.5074 44.9888C53.6585 44.724 53.8626 44.519 54.1197 44.3737C54.3768 44.2251 54.6612 44.1509 54.973 44.1509C55.2879 44.1509 55.574 44.2251 55.8311 44.3737C56.0882 44.519 56.2907 44.7224 56.4385 44.984C56.5864 45.2455 56.6603 45.5426 56.6603 45.8752C56.6603 46.2077 56.5864 46.5048 56.4385 46.7664C56.2907 47.0279 56.0882 47.2329 55.8311 47.3815C55.574 47.5268 55.2879 47.5994 54.973 47.5994ZM54.973 47.2168C55.2076 47.2168 55.4181 47.1619 55.6045 47.0521C55.7941 46.9423 55.942 46.7857 56.048 46.5823C56.1573 46.3789 56.2119 46.1432 56.2119 45.8752C56.2119 45.6039 56.1573 45.3682 56.048 45.168C55.942 44.9646 55.7957 44.808 55.6093 44.6982C55.4229 44.5884 55.2108 44.5335 54.973 44.5335C54.7351 44.5335 54.523 44.5884 54.3366 44.6982C54.1502 44.808 54.0024 44.9646 53.8931 45.168C53.787 45.3682 53.734 45.6039 53.734 45.8752C53.734 46.1432 53.787 46.3789 53.8931 46.5823C54.0024 46.7857 54.1502 46.9423 54.3366 47.0521C54.5262 47.1619 54.7384 47.2168 54.973 47.2168Z" fill="white"/>
<path d="M59.4859 45.1777C59.4859 45.4586 59.3895 45.6927 59.1967 45.88C59.0071 46.0641 58.7162 46.1561 58.3241 46.1561H57.6781V47.5655H57.2394V44.1896H58.3241C58.7034 44.1896 58.991 44.2817 59.187 44.4657C59.3863 44.6498 59.4859 44.8871 59.4859 45.1777ZM58.3241 45.7928C58.5684 45.7928 58.7483 45.7395 58.864 45.633C58.9797 45.5264 59.0376 45.3747 59.0376 45.1777C59.0376 44.7612 58.7998 44.5529 58.3241 44.5529H57.6781V45.7928H58.3241Z" fill="white"/>
<path d="M63.4395 44.2138V47.5655H63.0008V45.0663L61.892 47.5655H61.5835L60.4699 45.0615V47.5655H60.0312V44.2138H60.5036L61.7378 46.9843L62.9719 44.2138H63.4395Z" fill="white"/>
<path d="M64.6222 44.548V45.6766H65.8467V46.0398H64.6222V47.2023H65.9914V47.5655H64.1835V44.1848H65.9914V44.548H64.6222Z" fill="white"/>
<path d="M69.297 47.5655H68.8583L67.0939 44.8774V47.5655H66.6552V44.1848H67.0939L68.8583 46.8681V44.1848H69.297V47.5655Z" fill="white"/>
<path d="M72.113 44.1896V44.548H71.197V47.5655H70.7583V44.548H69.8375V44.1896H72.113Z" fill="white"/>
<path d="M33.1407 51.2568C33.1407 50.9274 33.2146 50.632 33.3624 50.3704C33.5103 50.1057 33.7111 49.899 33.965 49.7505C34.2221 49.6019 34.5066 49.5277 34.8183 49.5277C35.1847 49.5277 35.5045 49.6165 35.7777 49.7941C36.0509 49.9717 36.2501 50.2235 36.3755 50.5496H35.85C35.7568 50.3462 35.6218 50.1896 35.445 50.0798C35.2715 49.97 35.0626 49.9151 34.8183 49.9151C34.5837 49.9151 34.3732 49.97 34.1868 50.0798C34.0004 50.1896 33.8542 50.3462 33.7481 50.5496C33.642 50.7498 33.589 50.9856 33.589 51.2568C33.589 51.5248 33.642 51.7605 33.7481 51.9639C33.8542 52.1641 34.0004 52.3191 34.1868 52.4289C34.3732 52.5387 34.5837 52.5936 34.8183 52.5936C35.0626 52.5936 35.2715 52.5403 35.445 52.4338C35.6218 52.324 35.7568 52.1674 35.85 51.9639H36.3755C36.2501 52.2868 36.0509 52.5371 35.7777 52.7147C35.5045 52.889 35.1847 52.9762 34.8183 52.9762C34.5066 52.9762 34.2221 52.9036 33.965 52.7583C33.7111 52.6097 33.5103 52.4047 33.3624 52.1431C33.2146 51.8816 33.1407 51.5861 33.1407 51.2568Z" fill="white"/>
<path d="M38.5519 52.9811C38.2402 52.9811 37.9557 52.9084 37.6986 52.7631C37.4415 52.6146 37.2374 52.4095 37.0864 52.148C36.9385 51.8832 36.8646 51.5861 36.8646 51.2568C36.8646 50.9274 36.9385 50.632 37.0864 50.3704C37.2374 50.1057 37.4415 49.9006 37.6986 49.7553C37.9557 49.6068 38.2402 49.5325 38.5519 49.5325C38.8669 49.5325 39.1529 49.6068 39.41 49.7553C39.6671 49.9006 39.8696 50.104 40.0174 50.3656C40.1653 50.6271 40.2392 50.9242 40.2392 51.2568C40.2392 51.5894 40.1653 51.8864 40.0174 52.148C39.8696 52.4095 39.6671 52.6146 39.41 52.7631C39.1529 52.9084 38.8669 52.9811 38.5519 52.9811ZM38.5519 52.5984C38.7865 52.5984 38.997 52.5435 39.1834 52.4338C39.3731 52.324 39.5209 52.1674 39.627 51.9639C39.7362 51.7605 39.7909 51.5248 39.7909 51.2568C39.7909 50.9856 39.7362 50.7498 39.627 50.5496C39.5209 50.3462 39.3747 50.1896 39.1883 50.0798C39.0018 49.97 38.7897 49.9151 38.5519 49.9151C38.3141 49.9151 38.102 49.97 37.9155 50.0798C37.7291 50.1896 37.5813 50.3462 37.472 50.5496C37.366 50.7498 37.3129 50.9856 37.3129 51.2568C37.3129 51.5248 37.366 51.7605 37.472 51.9639C37.5813 52.1674 37.7291 52.324 37.9155 52.4338C38.1052 52.5435 38.3173 52.5984 38.5519 52.5984Z" fill="white"/>
<path d="M44.2267 49.5955V52.9472H43.788V50.4479L42.6792 52.9472H42.3707L41.257 50.4431V52.9472H40.8183V49.5955H41.2908L42.5249 52.3659L43.7591 49.5955H44.2267Z" fill="white"/>
<path d="M47.2172 50.5593C47.2172 50.8403 47.1208 51.0744 46.928 51.2616C46.7383 51.4457 46.4475 51.5377 46.0554 51.5377H45.4094V52.9472H44.9707V49.5713H46.0554C46.4346 49.5713 46.7223 49.6633 46.9183 49.8473C47.1176 50.0314 47.2172 50.2687 47.2172 50.5593ZM46.0554 51.1745C46.2996 51.1745 46.4796 51.1212 46.5953 51.0146C46.711 50.9081 46.7689 50.7563 46.7689 50.5593C46.7689 50.1428 46.531 49.9345 46.0554 49.9345H45.4094V51.1745H46.0554Z" fill="white"/>
<path d="M49.7487 52.1964H48.2831L48.0131 52.9472H47.5503L48.7652 49.5906H49.2714L50.4814 52.9472H50.0186L49.7487 52.1964ZM49.6233 51.838L49.0159 50.1331L48.4085 51.838H49.6233Z" fill="white"/>
<path d="M53.6527 52.9472H53.214L51.4496 50.259V52.9472H51.0109V49.5664H51.4496L53.214 52.2497V49.5664H53.6527V52.9472Z" fill="white"/>
<path d="M56.7532 49.5713L55.6588 51.6733V52.9472H55.2201V51.6733L54.121 49.5713H54.6079L55.4371 51.281L56.2662 49.5713H56.7532Z" fill="white"/>
<path d="M47.7913 35.3161C47.6296 35.3161 47.4712 35.2327 47.3438 35.0763C47.1794 34.8744 47.084 34.5722 47.084 34.2533V23.1336C47.084 22.5467 47.4007 22.0708 47.7913 22.0708H54.7212C55.0929 22.0708 55.4367 22.3242 55.6642 22.766C55.8917 23.2078 55.9687 23.7714 55.8754 24.3122L55.0582 29.0498C54.6243 31.5646 53.3138 33.5233 51.638 34.1616C51.6271 34.1658 51.6161 34.1695 51.6051 34.1729L47.9322 35.2948C47.8855 35.3091 47.8383 35.3161 47.7913 35.3161ZM48.4987 24.1965V32.9526L51.306 32.0951C52.4738 31.6413 53.386 30.2721 53.6888 28.5165L54.4341 24.1965H48.4987V24.1965Z" fill="#091543"/>
<path d="M41.8419 35.3156C41.7872 35.3156 41.7322 35.3086 41.6775 35.2943L37.3925 34.1724C37.3797 34.169 37.3669 34.1652 37.3542 34.1611C35.399 33.5227 33.87 31.5641 33.364 29.0493L32.4105 24.3117C32.3016 23.7709 32.3914 23.2074 32.6569 22.7656C32.9223 22.3237 33.3233 22.0703 33.7571 22.0703H41.8419C42.2977 22.0703 42.6671 22.5462 42.6671 23.1331V34.2528C42.6671 34.5718 42.5559 34.8739 42.3641 35.0758C42.2155 35.2322 42.0306 35.3156 41.8419 35.3156ZM37.7415 32.0946L41.0168 32.9521V24.196H34.0922L34.9616 28.5159C35.3149 30.2716 36.3791 31.6408 37.7415 32.0946Z" fill="#091543"/>
<path d="M46.7437 40.5429C45.3336 39.8238 44.3507 37.5842 44.2986 35.0071C44.3554 34.5999 44.3852 34.1788 44.3852 33.7494V30.9009H43.9889V33.7494C43.9889 36.4054 42.8513 38.7409 41.1992 39.4769V41.2028H47.086V40.7174L46.7437 40.5429Z" fill="#091543"/>
<path d="M48.2337 39.3254C46.862 38.6798 45.9175 36.6308 45.9175 34.3007V30.9019H44.2245V33.7504C44.2245 34.1798 44.1964 34.6008 44.1426 35.0081C44.1919 37.5852 45.1221 39.8248 46.4567 40.5438L46.7806 40.7184V41.2037H48.5577V39.4778L48.2337 39.3254Z" fill="#091543"/>
<path fill-rule="evenodd" clip-rule="evenodd" d="M49.0713 20.5991H49.7683H52.9719V25.8661C52.9719 30.1872 50.6315 34.1696 46.8556 36.2738C45.6351 36.9539 44.1513 36.9591 42.9268 36.2894L42.9272 36.2891C42.9179 36.2841 42.9087 36.2789 42.8994 36.2738C39.1235 34.1697 36.7832 30.1872 36.7832 25.8661V20.5991H49.0713Z" fill="#31416A"/>
<path fill-rule="evenodd" clip-rule="evenodd" d="M50.2267 41.2031H50.2264H37.542C37.1229 41.2031 36.7832 40.8737 36.7832 40.4673C36.7832 40.0609 37.1229 39.7314 37.542 39.7314H49.4677H49.8235H52.2131C52.6322 39.7314 52.9719 40.0609 52.9719 40.4673C52.9719 40.8737 52.6322 41.2031 52.2131 41.2031H50.2267Z" fill="#31416A"/>
<path fill-rule="evenodd" clip-rule="evenodd" d="M49.4836 22.0708C49.4835 22.0708 49.4834 22.0708 49.4833 22.0708H48.8131H37.8114C37.2436 22.0708 36.7832 21.4119 36.7832 20.5991C36.7832 19.7863 37.2436 19.1274 37.8114 19.1274H49.8406L49.8414 19.128V19.1274H51.9436C52.5115 19.1274 52.9719 19.7863 52.9719 20.5991C52.9719 21.4119 52.5115 22.0708 51.9436 22.0708H49.4836Z" fill="#091543"/>
<path d="M44.2307 27.5997C44.2307 27.5997 43.8196 27.5586 43.8196 27.9204V29.54H46.5163V30.0251C46.5163 30.0251 46.5246 30.2636 46.2697 30.2636H43.8196V32.3683H46.763C46.763 32.3683 48.5471 32.097 48.5636 30.2636V27.5997H44.2307ZM48.4814 25.0181H43.1701C41.2462 25.4703 41.2051 27.0488 41.2051 27.0488V32.3766H43.2441V27.5257C43.2441 27.1146 43.6552 27.0406 43.6552 27.0406H48.4731L48.4814 25.0181Z" fill="white"/>
<path d="M36.1335 59.4659C36.267 59.4659 36.3848 59.4903 36.487 59.5392C36.5912 59.5862 36.6725 59.6454 36.7309 59.7168V59.4912H37.0906V61.0701C37.0906 61.2129 37.0573 61.3398 36.9905 61.4507C36.9238 61.5635 36.8268 61.6518 36.6996 61.7157C36.5745 61.7796 36.4244 61.8116 36.2493 61.8116C36.0157 61.8116 35.8218 61.7618 35.6675 61.6621C35.5132 61.5644 35.4256 61.4309 35.4048 61.2618H35.7582C35.7853 61.3426 35.8426 61.4075 35.9302 61.4563C36.0199 61.5071 36.1262 61.5324 36.2493 61.5324C36.3931 61.5324 36.5089 61.493 36.5964 61.414C36.6861 61.3351 36.7309 61.2204 36.7309 61.0701V60.8107C36.6705 60.884 36.5881 60.946 36.4838 60.9968C36.3817 61.0456 36.2649 61.0701 36.1335 61.0701C35.9834 61.0701 35.8458 61.0362 35.7207 60.9686C35.5976 60.899 35.4996 60.8032 35.4267 60.681C35.3558 60.557 35.3203 60.4169 35.3203 60.2609C35.3203 60.1049 35.3558 59.9668 35.4267 59.8465C35.4996 59.7262 35.5976 59.6331 35.7207 59.5674C35.8458 59.4997 35.9834 59.4659 36.1335 59.4659ZM36.7309 60.2666C36.7309 60.1594 36.7059 60.0664 36.6559 59.9874C36.6079 59.9085 36.5443 59.8484 36.4651 59.807C36.3858 59.7657 36.3003 59.745 36.2086 59.745C36.1168 59.745 36.0314 59.7657 35.9521 59.807C35.8729 59.8465 35.8082 59.9057 35.7582 59.9846C35.7102 60.0617 35.6863 60.1538 35.6863 60.2609C35.6863 60.3681 35.7102 60.462 35.7582 60.5429C35.8082 60.6237 35.8729 60.6857 35.9521 60.7289C36.0334 60.7703 36.1189 60.791 36.2086 60.791C36.3003 60.791 36.3858 60.7703 36.4651 60.7289C36.5443 60.6876 36.6079 60.6274 36.6559 60.5485C36.7059 60.4677 36.7309 60.3737 36.7309 60.2666Z" fill="#091543"/>
<path d="M38.3065 61.0701C38.1438 61.0701 37.9968 61.0372 37.8655 60.9714C37.7341 60.9037 37.6309 60.8098 37.5558 60.6895C37.4808 60.5673 37.4432 60.4263 37.4432 60.2666C37.4432 60.1087 37.4818 59.9686 37.5589 59.8465C37.6361 59.7243 37.7414 59.6303 37.8749 59.5645C38.0083 59.4988 38.1574 59.4659 38.3221 59.4659C38.4868 59.4659 38.6359 59.4988 38.7694 59.5645C38.9028 59.6303 39.0081 59.7243 39.0853 59.8465C39.1624 59.9686 39.201 60.1087 39.201 60.2666C39.201 60.4244 39.1614 60.5645 39.0822 60.6866C39.0029 60.8088 38.8945 60.9037 38.7569 60.9714C38.6213 61.0372 38.4712 61.0701 38.3065 61.0701ZM38.3065 60.791C38.3982 60.791 38.4837 60.7712 38.563 60.7318C38.6443 60.6923 38.71 60.6331 38.76 60.5541C38.81 60.4752 38.8351 60.3793 38.8351 60.2666C38.8351 60.1538 38.8111 60.0589 38.7631 59.9818C38.7152 59.9029 38.6516 59.8437 38.5723 59.8042C38.4931 59.7647 38.4076 59.745 38.3159 59.745C38.2241 59.745 38.1386 59.7647 38.0594 59.8042C37.9822 59.8437 37.9207 59.9029 37.8749 59.9818C37.829 60.0589 37.806 60.1538 37.806 60.2666C37.806 60.4338 37.853 60.5635 37.9468 60.6556C38.0427 60.7458 38.1626 60.791 38.3065 60.791Z" fill="#091543"/>
<path d="M40.301 61.0701C40.1384 61.0701 39.9914 61.0372 39.86 60.9714C39.7287 60.9037 39.6254 60.8098 39.5504 60.6895C39.4753 60.5673 39.4378 60.4263 39.4378 60.2666C39.4378 60.1087 39.4763 59.9686 39.5535 59.8465C39.6307 59.7243 39.736 59.6303 39.8694 59.5645C40.0029 59.4988 40.1519 59.4659 40.3167 59.4659C40.4814 59.4659 40.6305 59.4988 40.7639 59.5645C40.8974 59.6303 41.0027 59.7243 41.0798 59.8465C41.157 59.9686 41.1956 60.1087 41.1956 60.2666C41.1956 60.4244 41.1559 60.5645 41.0767 60.6866C40.9975 60.8088 40.889 60.9037 40.7514 60.9714C40.6159 61.0372 40.4658 61.0701 40.301 61.0701ZM40.301 60.791C40.3928 60.791 40.4783 60.7712 40.5575 60.7318C40.6388 60.6923 40.7045 60.6331 40.7546 60.5541C40.8046 60.4752 40.8296 60.3793 40.8296 60.2666C40.8296 60.1538 40.8056 60.0589 40.7577 59.9818C40.7097 59.9029 40.6461 59.8437 40.5669 59.8042C40.4877 59.7647 40.4022 59.745 40.3104 59.745C40.2187 59.745 40.1332 59.7647 40.0539 59.8042C39.9768 59.8437 39.9153 59.9029 39.8694 59.9818C39.8235 60.0589 39.8006 60.1538 39.8006 60.2666C39.8006 60.4338 39.8475 60.5635 39.9413 60.6556C40.0373 60.7458 40.1572 60.791 40.301 60.791Z" fill="#091543"/>
<path d="M41.4292 60.2609C41.4292 60.1049 41.4646 59.9668 41.5355 59.8465C41.6085 59.7262 41.7065 59.6331 41.8295 59.5674C41.9547 59.4997 42.0933 59.4659 42.2455 59.4659C42.3581 59.4659 42.4687 59.4884 42.5771 59.5335C42.6876 59.5768 42.7752 59.635 42.8398 59.7083V58.9584H43.1995V61.0447H42.8398V60.8107C42.7814 60.8859 42.7001 60.9479 42.5958 60.9968C42.4937 61.0456 42.3759 61.0701 42.2424 61.0701C42.0923 61.0701 41.9547 61.0362 41.8295 60.9686C41.7065 60.899 41.6085 60.8032 41.5355 60.681C41.4646 60.557 41.4292 60.4169 41.4292 60.2609ZM42.8398 60.2666C42.8398 60.1594 42.8148 60.0664 42.7647 59.9874C42.7168 59.9085 42.6532 59.8484 42.574 59.807C42.4947 59.7657 42.4092 59.745 42.3175 59.745C42.2257 59.745 42.1402 59.7657 42.061 59.807C41.9818 59.8465 41.9171 59.9057 41.8671 59.9846C41.8191 60.0617 41.7951 60.1538 41.7951 60.2609C41.7951 60.3681 41.8191 60.462 41.8671 60.5429C41.9171 60.6237 41.9818 60.6857 42.061 60.7289C42.1423 60.7703 42.2278 60.791 42.3175 60.791C42.4092 60.791 42.4947 60.7703 42.574 60.7289C42.6532 60.6876 42.7168 60.6274 42.7647 60.5485C42.8148 60.4677 42.8398 60.3737 42.8398 60.2666Z" fill="#091543"/>
<path d="M44.3903 59.7534H44.0713V61.0447H43.7116V59.7534H43.5083V59.4912H43.7116V59.3813C43.7116 59.2027 43.7638 59.073 43.868 58.9922C43.9744 58.9095 44.1401 58.8682 44.3653 58.8682V59.136C44.2569 59.136 44.1808 59.1548 44.137 59.1924C44.0932 59.2281 44.0713 59.2911 44.0713 59.3813V59.4912H44.3903V59.7534Z" fill="#091543"/>
<path d="M44.8878 59.2854C44.8231 59.2854 44.7689 59.2657 44.7251 59.2262C44.6813 59.1867 44.6594 59.1379 44.6594 59.0796C44.6594 59.0213 44.6813 58.9725 44.7251 58.933C44.7689 58.8935 44.8231 58.8738 44.8878 58.8738C44.9503 58.8738 45.0035 58.8935 45.0473 58.933C45.0911 58.9725 45.113 59.0213 45.113 59.0796C45.113 59.1379 45.0911 59.1867 45.0473 59.2262C45.0035 59.2657 44.9503 59.2854 44.8878 59.2854ZM45.0629 59.4912V61.0447H44.7063V59.4912H45.0629Z" fill="#091543"/>
<path d="M45.8876 59.7168C45.9397 59.6378 46.0085 59.5768 46.094 59.5335C46.1816 59.4884 46.2848 59.4659 46.4037 59.4659V59.7985H46.313C46.1733 59.7985 46.0669 59.8305 45.9939 59.8944C45.9231 59.9583 45.8876 60.0692 45.8876 60.2271V61.0447H45.531V59.4912H45.8876V59.7168Z" fill="#091543"/>
<path d="M48.8176 59.4659C48.9532 59.4659 49.0741 59.4912 49.1805 59.542C49.2889 59.5927 49.3733 59.6679 49.4338 59.7675C49.4964 59.8672 49.5276 59.9874 49.5276 60.1284V61.0447H49.1742V60.1763C49.1742 60.0373 49.1356 59.9311 49.0585 59.8578C48.9813 59.7826 48.876 59.745 48.7426 59.745C48.6091 59.745 48.5028 59.7826 48.4235 59.8578C48.3464 59.9311 48.3078 60.0373 48.3078 60.1763V61.0447H47.9544V60.1763C47.9544 60.0373 47.9158 59.9311 47.8387 59.8578C47.7615 59.7826 47.6562 59.745 47.5228 59.745C47.3893 59.745 47.283 59.7826 47.2037 59.8578C47.1266 59.9311 47.088 60.0373 47.088 60.1763V61.0447H46.7314V59.4912H47.088V59.6689C47.1464 59.605 47.2204 59.5551 47.3101 59.5194C47.3997 59.4837 47.4957 59.4659 47.5978 59.4659C47.7354 59.4659 47.8585 59.4922 47.9669 59.5448C48.0753 59.5974 48.1587 59.6736 48.2171 59.7732C48.2692 59.6792 48.3506 59.605 48.4611 59.5504C48.5716 59.4941 48.6905 59.4659 48.8176 59.4659Z" fill="#091543"/>
<path d="M50.6069 61.0701C50.4714 61.0701 50.3494 61.0485 50.241 61.0052C50.1346 60.9601 50.0502 60.9 49.9876 60.8248C49.9251 60.7477 49.8917 60.6622 49.8875 60.5682H50.2566C50.2629 60.634 50.2973 60.6895 50.3598 60.7346C50.4245 60.7778 50.5047 60.7994 50.6007 60.7994C50.7007 60.7994 50.7779 60.7825 50.8321 60.7487C50.8884 60.713 50.9166 60.6678 50.9166 60.6133C50.9166 60.5551 50.8853 60.5118 50.8227 60.4836C50.7623 60.4555 50.6653 60.4244 50.5318 60.3906C50.4026 60.3587 50.2973 60.3276 50.2159 60.2976C50.1346 60.2675 50.0637 60.2214 50.0033 60.1594C49.9449 60.0974 49.9157 60.0156 49.9157 59.9141C49.9157 59.8314 49.9428 59.7563 49.997 59.6886C50.0512 59.619 50.1284 59.5645 50.2285 59.5251C50.3306 59.4856 50.4474 59.4659 50.5788 59.4659C50.7748 59.4659 50.9322 59.511 51.0511 59.6012C51.172 59.6895 51.2366 59.8108 51.245 59.9649H50.8884C50.8822 59.8953 50.8509 59.8399 50.7946 59.7985C50.7383 59.7572 50.6622 59.7365 50.5663 59.7365C50.4724 59.7365 50.4005 59.7525 50.3504 59.7845C50.3004 59.8164 50.2754 59.8587 50.2754 59.9113C50.2754 59.9527 50.2921 59.9874 50.3254 60.0156C50.3588 60.0438 50.3994 60.0664 50.4474 60.0833C50.4954 60.0983 50.5663 60.1181 50.6601 60.1425C50.7852 60.1726 50.8874 60.2036 50.9666 60.2355C51.0479 60.2656 51.1178 60.3107 51.1762 60.3709C51.2345 60.431 51.2648 60.5109 51.2669 60.6105C51.2669 60.6989 51.2398 60.7778 51.1855 60.8473C51.1313 60.9169 51.0542 60.9714 50.9541 61.0109C50.8561 61.0503 50.7404 61.0701 50.6069 61.0701Z" fill="#091543"/>
<path d="M51.796 61.0644C51.7314 61.0644 51.6772 61.0447 51.6334 61.0052C51.5896 60.9658 51.5677 60.9169 51.5677 60.8586C51.5677 60.8004 51.5896 60.7515 51.6334 60.712C51.6772 60.6725 51.7314 60.6528 51.796 60.6528C51.8586 60.6528 51.9117 60.6725 51.9555 60.712C51.9993 60.7515 52.0212 60.8004 52.0212 60.8586C52.0212 60.9169 51.9993 60.9658 51.9555 61.0052C51.9117 61.0447 51.8586 61.0644 51.796 61.0644Z" fill="#091543"/>
<path d="M52.2877 60.2666C52.2877 60.1068 52.3232 59.9668 52.3941 59.8465C52.4671 59.7243 52.5671 59.6303 52.6943 59.5645C52.8215 59.4988 52.9675 59.4659 53.1322 59.4659C53.3407 59.4659 53.5128 59.511 53.6483 59.6012C53.7859 59.6895 53.8787 59.8164 53.9267 59.9818H53.542C53.5107 59.9047 53.4606 59.8446 53.3918 59.8014C53.323 59.7581 53.2365 59.7365 53.1322 59.7365C52.9863 59.7365 52.8695 59.7835 52.7819 59.8775C52.6964 59.9696 52.6537 60.0993 52.6537 60.2666C52.6537 60.4338 52.6964 60.5645 52.7819 60.6584C52.8695 60.7524 52.9863 60.7994 53.1322 60.7994C53.3387 60.7994 53.4752 60.7177 53.542 60.5541H53.9267C53.8766 60.712 53.7828 60.8379 53.6452 60.9319C53.5076 61.024 53.3366 61.0701 53.1322 61.0701C52.9675 61.0701 52.8215 61.0372 52.6943 60.9714C52.5671 60.9037 52.4671 60.8098 52.3941 60.6895C52.3232 60.5673 52.2877 60.4263 52.2877 60.2666Z" fill="#091543"/>
<path d="M55.0295 61.0701C54.8669 61.0701 54.7199 61.0372 54.5885 60.9714C54.4572 60.9037 54.354 60.8098 54.2789 60.6895C54.2038 60.5673 54.1663 60.4263 54.1663 60.2666C54.1663 60.1087 54.2049 59.9686 54.282 59.8465C54.3592 59.7243 54.4645 59.6303 54.5979 59.5645C54.7314 59.4988 54.8805 59.4659 55.0452 59.4659C55.2099 59.4659 55.359 59.4988 55.4925 59.5645C55.6259 59.6303 55.7312 59.7243 55.8084 59.8465C55.8855 59.9686 55.9241 60.1087 55.9241 60.2666C55.9241 60.4244 55.8845 60.5645 55.8052 60.6866C55.726 60.8088 55.6176 60.9037 55.4799 60.9714C55.3444 61.0372 55.1943 61.0701 55.0295 61.0701ZM55.0295 60.791C55.1213 60.791 55.2068 60.7712 55.286 60.7318C55.3673 60.6923 55.433 60.6331 55.4831 60.5541C55.5331 60.4752 55.5581 60.3793 55.5581 60.2666C55.5581 60.1538 55.5342 60.0589 55.4862 59.9818C55.4382 59.9029 55.3746 59.8437 55.2954 59.8042C55.2162 59.7647 55.1307 59.745 55.0389 59.745C54.9472 59.745 54.8617 59.7647 54.7825 59.8042C54.7053 59.8437 54.6438 59.9029 54.5979 59.9818C54.552 60.0589 54.5291 60.1538 54.5291 60.2666C54.5291 60.4338 54.576 60.5635 54.6699 60.6556C54.7658 60.7458 54.8857 60.791 55.0295 60.791Z" fill="#091543"/>
</svg>
